<svg width="1255" height="526" viewBox="0 0 1255 526" fill="none" xmlns="http://www.w3.org/2000/svg">
<path d="M194 196.138C333.5 233.517 616 196.138 674.165 196.138C692.01 194.397 706.55 190.35 705.561 174.504C704.572 158.657 682.194 161.308 684.359 180.578C687.424 207.864 770.162 195.949 784.829 195.662C784.829 195.662 791.51 196.014 795.733 201.175C799.955 206.335 815.673 220.408 839.834 220.408C863.996 220.408 870.565 224.162 878.775 215.717C886.985 207.271 895.196 205.626 901.999 207.741C908.802 209.857 933.545 214.19 943.051 209.384C952.557 204.578 940.236 189.678 944.693 178.653C949.15 167.627 949.15 155.898 945.162 151.676C941.175 147.454 935.314 129.091 933.822 121.449C933.143 117.976 931.451 110.735 930.572 104.236C929.693 97.7378 929.867 91.9404 931.889 88.6044C933.911 85.2685 937.775 84.388 939.531 85.1794C941.286 85.9707 940.936 88.4287 941.112 91.6781C941.287 94.9274 941.99 98.9672 943.395 101.601C944.8 104.235 946.908 105.469 948.313 107.572C949.832 109.907 950.369 112.748 949.807 115.476C949.192 118.288 947.26 120.922 946.469 122.766C946.134 123.362 945.973 124.04 946.004 124.723C946.035 125.406 946.257 126.067 946.645 126.63C947.26 127.596 948.138 128.474 948.402 129.44C948.665 130.406 948.318 131.458 948.929 132.25C949.54 133.043 951.124 133.569 952.091 134.622C952.972 135.8 953.518 137.195 953.672 138.658C953.799 139.912 954.156 141.132 954.725 142.256C955.341 143.222 956.395 143.921 957.009 145.242C957.623 146.563 957.799 148.495 959.731 150.603C962.4 153.358 966.002 155.019 969.831 155.259C974.31 155.521 979.579 153.766 984.41 153.325C989.24 152.884 993.631 153.763 995.739 156.223C997.846 158.682 997.673 162.721 997.32 162.81C996.966 162.898 996.438 159.034 996.614 152.887C996.896 145.58 997.688 138.303 998.985 131.107C1000.3 123.905 1002.06 117.932 1002.76 112.751C1003.46 107.57 1003.11 103.179 1001.27 100.983C999.422 98.7873 996.086 98.7873 992.308 98.8747C987.942 99.1043 983.564 98.9571 979.223 98.4349C973.339 97.7134 967.678 95.737 962.624 92.6392C957.09 89.1258 951.996 83.68 949.888 78.7639C947.781 73.8478 948.659 69.4523 953.402 64.9726C958.144 60.493 966.753 55.9284 976.15 57.5077C985.546 59.087 995.733 66.8294 1002.79 71.1745C1009.85 75.5196 1013.77 76.4883 1015.75 75.8484C1017.73 75.2084 1017.77 72.9606 1015.02 69.5793C1010.86 64.8427 1005.57 61.2297 999.65 59.0735C992.234 56.3951 984.222 55.8269 976.503 57.432C969.904 59.0272 963.788 62.1925 958.675 66.6587C954.631 70.1713 952.872 73.1557 950.5 74.3852C948.129 75.6146 945.144 75.0907 942.512 78.6016C939.88 82.1125 937.593 89.6682 936.891 98.3634C936.175 107.164 937.007 116.022 939.35 124.535C941.633 132.176 945.32 137.622 948.396 142.539C951.471 147.456 953.929 151.851 955.246 156.414C956.563 160.978 956.738 165.726 955.509 172.047C954.28 178.369 951.646 186.275 951.206 193.125C950.839 199.33 952.239 205.511 955.242 210.953C957.964 216.135 961.654 220.708 963.89 224.713C966.126 228.718 966.909 232.18 966.212 235.141C965.515 238.102 963.335 240.569 958.522 241.08C953.71 241.591 946.262 240.155 939.41 240.174C932.559 240.194 926.292 241.696 920.529 242.088C914.766 242.479 909.493 241.781 903.374 241.21C897.255 240.639 890.287 240.201 885.809 242.044C881.33 243.887 879.339 248.014 875.094 250.958C870.848 253.901 864.35 255.657 857.229 256.277C850.108 256.896 842.366 256.381 837.009 252.956C831.651 249.531 828.684 243.196 827.573 238.901C826.462 234.607 827.22 232.353 828.842 235.652C830.465 238.951 832.934 247.804 833.78 251.836C834.627 255.869 833.831 255.082 831.251 251.164C828.671 247.246 824.291 240.208 817.449 227.292C810.606 214.376 801.294 195.581 796.638 184.955C791.982 174.329 791.986 171.869 792.686 170.64C793.386 169.41 794.788 169.409 796.638 171.254C798.488 173.099 800.767 176.789 805.157 186.536C809.546 196.283 816.042 212.086 820.346 220.433C824.65 228.78 826.757 229.658 827.987 230.098C828.92 230.436 829.895 230.643 830.885 230.712C833.884 231.127 836.904 231.362 839.931 231.418C845.376 231.595 853.983 231.596 861.975 231.77C869.967 231.944 877.344 232.297 880.946 232.297C884.547 232.297 884.371 231.945 883.756 230.279C883.141 228.613 882.088 225.623 882.351 222.902C882.667 220.283 883.99 217.889 886.039 216.227C887.883 214.736 889.991 214.209 893.68 214.384C897.368 214.559 902.639 215.437 906.415 217.281C910.191 219.125 912.474 221.937 915.285 223.605C918.096 225.272 921.431 225.8 926.615 225.539C931.798 225.277 938.818 224.225 944.358 223.431C949.898 222.637 953.932 222.11 955.864 222.725C957.796 223.34 957.621 225.096 958.06 227.555C958.499 230.015 959.55 233.177 962.188 234.757C964.826 236.337 969.04 236.338 972.728 233.088C976.415 229.838 979.578 223.34 981.598 215.435C983.619 207.53 984.497 198.223 985.375 190.756C986.252 183.29 987.13 177.673 989.237 174.772C991.345 171.871 994.683 171.696 996.879 174.066C999.075 176.437 1000.13 181.356 999.25 187.416C998.371 193.477 995.565 200.678 992.399 207.44C989.234 214.202 985.724 220.527 985.637 223.952C985.549 227.377 988.882 227.904 992.311 225.886C995.74 223.868 999.25 219.298 1003.12 212.361C1006.98 205.424 1011.2 196.115 1013.31 186.367C1015.41 176.619 1015.41 166.431 1016.99 162.128C1018.57 157.825 1021.74 159.405 1025.69 159.492C1029.64 159.58 1034.39 158.172 1041.15 157.209C1047.91 156.246 1056.69 155.719 1062.31 157.915C1067.93 160.11 1070.39 165.029 1070.3 171.177C1070.21 177.325 1067.57 184.703 1063.62 192.432C1059.07 201.3 1053.34 209.512 1046.59 216.846C1038.77 225.452 1028.41 234.59 1020.24 239.945C1012.07 245.3 1006.09 246.883 999.247 247.234C992.399 247.586 984.668 246.707 974.129 245.126C963.589 243.545 950.239 241.266 938.822 238.715C927.404 236.163 917.922 233.354 908.61 233.354C899.792 233.473 891.127 235.67 883.316 239.765C876.466 243.362 871.899 247.754 869.264 252.851C866.821 257.547 865.93 262.898 866.718 268.133C867.508 272.522 869.792 275.51 872.778 278.056C875.683 280.566 879.055 282.476 882.701 283.677C885.947 284.642 888.756 284.467 890.606 283.237C892.456 282.006 893.328 279.723 894.12 275.248C894.911 270.772 895.613 264.094 897.106 260.229C898.598 256.364 900.882 255.311 902.727 255.926C903.725 256.316 904.546 257.059 905.032 258.015C905.518 258.971 905.635 260.072 905.361 261.109C904.748 263.392 902.116 265.675 901.409 269.013C900.702 272.352 901.936 276.743 902.814 278.852C903.692 280.961 904.221 280.786 905.624 280.345C907.026 279.903 909.313 279.205 912.035 275.865C914.757 272.526 917.921 266.554 920.466 263.482C923.011 260.41 924.945 260.232 927.316 261.813C929.688 263.394 932.497 266.732 939.787 269.634C947.077 272.536 958.846 274.995 968.946 277.187C979.045 279.379 987.477 281.315 995.03 282.369C1002.58 283.423 1009.26 283.598 1015.05 282.369C1020.85 281.139 1025.77 278.501 1032.62 274.548C1039.47 270.596 1048.25 265.326 1055.1 263.043C1061.95 260.76 1066.88 261.452 1069.77 264C1072.67 266.547 1073.55 270.938 1073.46 276.646C1073.38 282.355 1072.32 289.381 1070.57 293.333C1068.81 297.285 1066.35 298.167 1060.2 297.462C1052.59 296.382 1045.07 294.708 1037.72 292.453C1031.22 290.435 1028.05 288.68 1032.54 284.549C1037.02 280.417 1049.14 273.919 1056.51 268.125C1063.89 262.331 1066.53 257.235 1067.84 248.363C1069.16 239.492 1069.16 226.847 1069.69 218.064C1070.21 209.28 1071.27 204.363 1072.32 205.944C1073.38 207.525 1074.43 215.602 1075.31 227.373C1076.19 239.143 1076.89 254.598 1081.54 269.266C1086.2 283.933 1094.81 297.808 1098.84 303.78C1102.88 309.752 1102.36 307.816 1099.46 298.159C1096.56 288.502 1091.29 271.109 1086.81 260.747C1082.33 250.385 1078.65 247.04 1071.18 243.003C1063.72 238.967 1052.47 234.222 1045.53 230.094C1038.59 225.966 1035.96 222.457 1037.71 217.623C1039.47 212.79 1045.62 206.642 1051.5 199.352C1057.39 192.063 1063.01 183.633 1067.49 177.308C1071.97 170.984 1075.3 166.77 1077.5 167.56C1079.7 168.351 1080.75 174.147 1082.77 179.153C1084.79 184.159 1087.78 188.365 1093.92 188.719C1100.07 189.073 1109.38 185.557 1115.79 180.552C1122.2 175.546 1125.71 169.047 1128.44 164.919C1131.16 160.791 1133.09 159.032 1135.9 161.405C1138.71 163.779 1142.4 170.276 1145.74 183.185C1149.08 196.095 1152.06 215.418 1151.98 232.194C1151.89 248.97 1148.73 263.197 1147.41 274.352C1146.09 285.506 1146.62 293.585 1146.53 298.679C1146.44 303.772 1145.74 305.879 1137.31 308.692C1128.88 311.505 1112.72 315.015 1091.73 319.494C1070.75 323.973 1044.92 329.417 1025.69 330.735C1006.45 332.053 993.808 329.241 980.722 326.255C967.635 323.269 954.11 320.107 943.216 321.074C932.321 322.04 924.069 327.134 918.448 330.209C912.828 333.283 909.842 334.337 908.436 332.492C907.03 330.647 907.209 325.905 908.789 321.777C910.369 317.648 913.355 314.135 918.537 311.325C924.693 308.205 931.413 306.353 938.299 305.88C945.503 305.352 952.527 306.404 961.045 309.748C969.564 313.091 979.589 318.713 989.596 321.344C997.722 323.327 1006.12 323.95 1014.45 323.188C1019.28 322.749 1018.93 322.223 1014.53 317.04C1010.14 311.858 1001.71 302.021 996.442 296.489C991.172 290.956 989.065 289.73 980.809 289.64C972.554 289.55 958.146 290.608 939.443 290.255C920.74 289.903 897.726 288.147 884.904 287.268C872.081 286.389 869.443 286.389 872.169 293.943C874.894 301.498 882.979 316.606 886.489 324.686C889.999 332.767 888.945 333.82 885.784 330.483C882.622 327.145 877.352 319.417 873.842 311.864C870.332 304.31 868.573 296.934 866.992 292.454C866.148 289.709 864.745 287.169 862.872 284.992C861.732 283.587 860.853 282.358 848.117 269.448C835.381 256.538 810.792 231.943 798.057 219.651C785.322 207.359 784.442 207.356 785.059 213.327C785.675 219.298 787.779 231.245 787.869 236.249C787.959 241.253 786.025 239.324 800.516 254.077C815.007 268.829 845.922 300.273 863.838 317.223C881.754 334.173 886.672 336.632 891.327 337.246C895.982 337.86 900.374 336.632 902.217 337.774C904.059 338.915 903.358 342.43 904.413 345.151C905.467 347.872 908.281 349.807 910.736 349.454C913.192 349.101 915.303 346.466 917.674 344.535C920.045 342.605 922.683 341.374 923.119 342.252C923.555 343.131 921.802 346.121 923.997 347.961C926.192 349.802 932.34 350.507 935.151 352.176C937.962 353.845 937.435 356.479 939.279 358.763C941.123 361.047 945.339 362.979 958.513 364.208C971.687 365.438 993.819 365.965 1017.62 366.579C1041.42 367.193 1066.89 367.897 1090.43 367.632C1113.97 367.368 1135.57 366.139 1152.26 364.387C1168.94 362.636 1180.71 360.351 1187.03 355.781C1193.36 351.212 1194.24 344.364 1192.22 341.813C1190.19 339.263 1185.28 341.02 1184.84 345.411C1184.4 349.802 1188.44 356.828 1192.31 358.497C1196.18 360.165 1199.88 356.472 1202.25 350.065C1204.62 343.658 1205.66 334.523 1206.89 320.297C1208.11 306.07 1209.52 286.748 1212.15 270.587C1214.79 254.426 1218.65 241.43 1220.85 239.936C1223.04 238.441 1223.57 248.453 1222.25 257.588C1220.93 266.723 1217.77 274.976 1212.94 277.523C1208.11 280.071 1201.61 276.908 1190.98 274.273C1180.36 271.639 1165.6 269.532 1156.47 268.654C1147.33 267.776 1143.82 268.126 1141.8 262.066C1139.78 256.005 1139.26 243.531 1138.2 228.344C1137.15 213.157 1135.57 195.234 1136.53 181.972C1137.5 168.71 1141.01 160.108 1141.01 154.131C1141.01 148.155 1137.5 144.82 1133.64 139.552C1129.77 134.285 1125.56 127.082 1124.42 117.856C1123.27 108.63 1125.21 97.3922 1126 84.658C1126.79 71.9238 1126.43 57.6952 1120.2 47.9463C1113.96 38.1974 1101.84 32.9282 1085.33 33.8952C1068.82 34.8623 1047.91 42.0624 1035.88 45.6641C1023.85 49.2658 1020.69 49.2649 1015.77 48.2978C1010.85 47.3308 1004.18 45.4008 1003.47 43.9074C1002.77 42.4139 1008.04 41.3593 1015.24 37.8468C1022.44 34.3342 1031.57 28.3577 1040.18 21.3393C1048.79 14.3209 1056.87 6.23455 1066.53 2.71862C1076.19 -0.797304 1087.43 0.25722 1101.84 9.04073C1116.24 17.8242 1133.81 34.3351 1141.97 47.6815C1150.14 61.0278 1148.91 71.2191 1145.57 81.0554C1142.23 90.8918 1136.79 100.373 1134.94 108.627C1133.1 116.881 1134.86 123.908 1137.31 126.28C1139.77 128.651 1142.93 126.364 1142.76 123.03C1142.58 119.695 1139.07 115.3 1133.27 114.248C1127.47 113.196 1119.4 115.481 1114.92 114.953C1110.44 114.425 1109.56 111.085 1109.3 105.556C1109.04 100.027 1109.39 92.2936 1105.7 87.026C1102.01 81.7584 1094.28 78.9481 1088.31 80.8771C1082.34 82.8062 1078.12 89.4832 1074.17 92.4711C1070.22 95.4589 1066.53 94.7575 1063.19 93.1766C1059.86 91.5956 1056.87 89.1401 1052.3 85.4476C1047.74 81.7551 1041.59 76.8432 1037.02 71.4756C1032.46 66.1079 1029.47 60.3206 1026.66 58.8271C1023.85 57.3336 1021.21 60.144 1019.55 64.1847C1017.87 68.3911 1017.23 72.9415 1017.7 77.4462C1018.22 81.3985 1019.98 84.0332 1021.3 86.5795C1022.63 88.9589 1023.44 91.5932 1023.67 94.3085C1023.84 97.1772 1023.3 100.043 1022.09 102.651C1020.86 105.283 1018.93 107.57 1017.61 110.64C1016.29 113.71 1015.59 117.58 1017.35 119.16C1019.1 120.741 1023.32 120.038 1025.25 120.301C1027.19 120.563 1026.83 121.793 1026.92 123.374C1027 125.194 1027.65 126.944 1028.77 128.383C1029.99 129.874 1031.93 130.927 1032.89 131.98C1033.86 133.034 1033.86 134.089 1034.21 135.318C1034.52 136.679 1035.34 137.872 1036.49 138.656C1037.72 139.361 1039.48 139.361 1040.53 140.501C1041.58 141.64 1041.93 143.925 1042.64 146.121C1043.34 148.316 1044.4 150.424 1046.77 151.302C1049.14 152.181 1052.83 151.829 1057.83 151.038C1062.84 150.248 1069.16 149.02 1074.26 151.302C1079.35 153.585 1083.21 159.382 1087.34 163.423C1091.47 167.463 1095.86 169.747 1097.26 170.011C1098.67 170.275 1097.09 168.516 1095.16 167.992C1094.12 167.747 1093.03 167.798 1092.03 168.14C1091.02 168.482 1090.12 169.101 1089.45 169.927C1087.95 171.682 1087.25 174.493 1087.17 177.304C1087.08 180.115 1087.6 182.924 1090.33 183.191C1093.05 183.457 1097.97 181.172 1103.41 177.481C1109.69 173.129 1115.46 168.093 1120.62 162.464C1126.42 156.228 1132.04 148.849 1137.31 142.702C1142.58 136.555 1147.5 131.636 1153.65 131.285C1159.79 130.933 1167.17 135.153 1179.03 141.474C1190.88 147.794 1207.22 156.23 1217.93 170.017C1228.65 183.804 1233.74 202.946 1237.17 235.274C1240.59 267.601 1223.77 296.489 1240.46 358.763C1314.3 634.341 1065.11 483.841 796.638 483.841M488 479.119C251 479.119 -8.33334 371.067 -113.5 317.04" stroke="white" stroke-width="1.68186"/>
</svg>
