<svg width="940" height="267" viewBox="0 0 940 267" fill="none" xmlns="http://www.w3.org/2000/svg">
<path d="M940 229.842C932.812 216.329 907.257 216.139 886.984 215.758C866.71 215.377 853.617 214.71 848.007 213.115C842.397 211.52 844.266 208.984 848.836 205.847C853.405 202.711 860.672 198.969 861.551 189.06C862.429 179.152 856.925 163.078 852.797 158.346C848.669 153.614 845.919 160.221 845.751 170.457C845.583 180.693 848.005 194.567 855.802 201.313C863.599 208.058 876.767 207.677 884.56 203.536C892.353 199.394 894.747 191.486 893.225 178.796C891.704 166.107 886.253 148.63 878.575 134.443C870.897 120.256 860.988 109.356 853.337 103.797C845.687 98.2384 840.293 98.0184 834.073 105.339C827.852 112.659 820.81 127.519 813.211 133.136C805.613 138.752 797.469 135.118 790.038 128.843C782.607 122.568 775.893 113.651 773.898 108.995C771.903 104.339 774.628 103.944 779.805 104.385C784.982 104.827 792.602 106.1 799.275 107.013C805.948 107.926 811.672 108.476 816.076 107.926C820.48 107.376 823.562 105.725 823.122 102.532C822.682 99.3384 818.719 94.605 817.508 89.706C816.297 84.8071 817.837 79.7433 818.773 74.2664C819.616 68.8185 820.094 63.3204 820.205 57.8088C820.369 52.7167 820.369 48.4241 819.049 46.2494C817.728 44.0747 815.086 44.0195 812.939 42.396C810.793 40.7725 809.14 37.5776 807.216 34.6317C805.291 31.6859 803.089 28.9885 799.703 28.4389C796.318 27.8893 791.751 29.4852 788.104 32.1229C784.457 34.7605 781.737 38.4361 779.398 44.0126C777.058 49.5892 775.102 57.0507 772.279 60.1399C769.456 63.229 765.767 61.9359 764.117 54.1609C762.467 46.3859 762.851 32.129 765.769 22.5519C768.686 12.9747 774.133 8.07807 777.628 6.48214C781.123 4.8862 782.661 6.59022 786.242 5.73936C789.824 4.8885 795.438 1.47587 801.74 0.868004C808.043 0.260139 815.035 2.46241 818.886 5.40668C822.737 8.35096 823.453 12.0388 828.491 15.617C833.529 19.1952 842.886 22.6607 847.455 27.5321C852.024 32.4034 851.802 38.6714 850.427 44.2081C849.052 49.7448 846.518 54.5257 845.389 59.4799C844.261 64.434 844.536 69.553 841.674 74.4795C838.812 79.4061 832.81 84.1394 828.683 86.5617C824.556 88.984 822.297 89.0943 819.574 89.6447C815.952 90.4663 812.4 91.5704 808.95 92.947C804.244 94.71 798.024 97.2426 792.657 96.0591C787.289 94.8756 782.776 89.9759 780.134 84.4721C777.491 78.9684 776.72 72.8583 777.711 65.964C778.86 58.9561 781.079 52.1661 784.289 45.8316C787.125 40.2719 790.041 36.8325 791.335 38.456C792.629 40.0795 792.299 46.7676 790.785 52.6845C789.271 58.6014 786.574 63.7487 786.216 66.4316C785.858 69.1145 787.84 69.3368 789.271 69.7753C790.702 70.2137 791.583 70.8745 791.583 74.3147C791.408 78.8165 790.828 83.2933 789.849 87.6908C789.001 91.4062 788.172 92.6181 784.402 93.8285C780.631 95.0388 773.916 96.2492 764.889 99.6902C755.862 103.131 744.522 108.801 736.761 117.415C729.001 126.028 724.817 137.588 720.799 153.496C716.781 169.404 712.928 189.657 716.23 202.375C719.533 215.093 729.991 220.265 741.055 221.699C752.118 223.132 763.788 220.82 765.934 218.068C768.081 215.315 760.707 212.118 754.708 208.486C748.709 204.854 744.085 200.781 741.663 194.065C739.24 187.349 739.017 177.991 740.066 171.552C741.115 165.113 743.416 161.593 745.288 162.308C747.16 163.023 748.59 167.982 748.975 176.898C749.361 185.813 748.7 198.695 745.013 206.179C741.325 213.664 734.61 215.753 724.206 216.911C713.803 218.068 699.712 218.286 692.997 218.782C686.281 219.278 686.942 220.048 690.354 221.424C693.767 222.8 699.935 224.782 702.189 227.204C704.443 229.626 702.795 232.494 699.767 238.433C696.739 244.372 692.336 253.405 689.143 257.863C685.951 262.321 683.969 262.21 681.988 257.038C680.006 251.865 678.025 241.626 677.254 223.902C676.484 206.179 676.922 180.968 675.438 168.804C673.954 156.639 670.539 157.523 643.348 158.455C616.156 159.388 565.185 160.384 539.645 161.593C514.106 162.802 513.994 164.235 515.922 180.526C517.849 196.818 521.812 227.973 525.35 244.839C528.888 261.705 532.001 264.284 556.428 265.435C580.855 266.586 626.597 266.311 649.467 264.11C672.338 261.908 672.338 257.777 666.118 255.715C659.898 253.654 647.458 253.651 625.233 253.849C603.008 254.047 570.997 254.441 550.328 255.101C529.659 255.762 520.332 256.689 516.136 251.896C511.94 247.103 512.873 236.589 513.289 228.635C513.705 220.681 513.596 215.287 511.296 212.043C508.997 208.8 504.51 207.706 499.568 206.392C494.626 205.078 489.233 203.534 487.911 198.14C486.59 192.746 489.34 183.495 493.388 174.058C497.437 164.621 502.771 154.988 511.387 151.493C520.004 147.997 531.894 150.636 550.553 152.071C569.212 153.506 594.641 153.723 609.34 153.451C624.039 153.179 628 152.405 628.715 149.158C629.43 145.911 626.895 140.184 620.07 134.886C613.244 129.588 602.125 124.716 595.988 125.019C589.851 125.322 588.694 130.797 586.823 136.262C584.952 141.726 582.364 147.174 578.264 149.239C574.164 151.303 568.55 149.979 565.632 146.844C562.713 143.709 562.493 138.755 562.713 133.966C562.934 129.177 563.595 124.551 566.292 122.462C568.988 120.372 573.726 120.811 577.905 120.755C582.085 120.7 585.722 120.15 587.221 117.274C588.721 114.398 588.084 109.195 587.661 105.109C587.239 101.022 587.016 98.049 588.504 95.9579C589.993 93.8668 593.183 92.6557 594.669 91.4445C596.155 90.2334 595.938 89.0254 594.503 87.6463C593.069 86.2673 590.427 84.7266 589.367 81.1622C588.308 77.5978 588.832 72.0113 587.043 65.268C585.253 58.5248 581.153 50.6263 572.567 45.6722C563.98 40.7181 550.907 38.709 539.802 39.8511C528.696 40.9933 519.562 45.2889 515.651 50.8463C511.74 56.4038 513.062 63.229 513.446 69.7799C513.831 76.3307 513.28 82.6094 508.987 88.8253C504.695 95.0411 496.655 101.209 493.906 106.769C491.157 112.329 493.685 117.282 498.002 120.671C502.319 124.061 508.424 125.887 511.778 126.891C515.133 127.895 515.747 128.079 516.577 129.739C517.407 131.4 518.452 134.538 520.269 137.574C522.087 140.61 524.673 143.548 528.802 144.867C532.93 146.186 538.6 145.893 542.618 142.567C546.635 139.241 549.002 132.884 550.021 127.283C551.04 121.683 550.71 116.839 553.296 114.252C555.883 111.665 561.387 111.335 562.874 108.692C564.36 106.05 561.827 101.097 560.177 96.6378C558.527 92.1789 557.752 88.2159 559.695 84.1839C561.637 80.1519 566.288 76.0486 570.196 71.3727C574.105 66.6968 577.267 61.4376 576.54 57.2684C575.814 53.0992 571.19 50.0162 564.48 48.0569C556.783 45.9069 548.727 45.3626 540.812 46.4579C532.652 47.6552 525.125 50.8862 522.481 57.3596C519.836 63.833 522.064 73.5489 522.902 80.6072C523.741 87.6655 523.191 92.0662 518.402 96.8578C513.614 101.649 504.586 106.821 497.375 111.83C490.207 116.731 483.791 122.651 478.33 129.403C469.968 139.459 463.006 150.602 457.633 162.526C450.862 177.333 444.807 196.348 446.335 208.652C447.863 220.957 456.973 226.543 469.468 228.965C481.962 231.388 497.844 230.643 503.402 228.112C508.961 225.581 504.201 221.259 484.44 219.333C484.44 219.333 464.927 217.487 434.056 214.964C277.183 214.964 197.304 251.896 0 251.896" stroke="white" stroke-width="1.53308"/>
</svg>
