<svg width="86" height="86" viewBox="0 0 86 86" fill="none" xmlns="http://www.w3.org/2000/svg">
<g clip-path="url(#clip0_13_94)">
<g clip-path="url(#clip1_13_94)">
<g clip-path="url(#clip2_13_94)">
<path d="M42.5182 84.2536C65.5679 84.2536 84.2534 65.5681 84.2534 42.5184C84.2534 19.4687 65.5679 0.783203 42.5182 0.783203C19.4684 0.783203 0.782959 19.4687 0.782959 42.5184C0.782959 65.5681 19.4684 84.2536 42.5182 84.2536Z" fill="#E9E990" stroke="#1A1B27" stroke-width="1.56586"/>
<path d="M17.6595 34.956L17.1855 37.9674L15.9326 37.7702L16.0537 37.0008L14.3062 36.7258L13.8304 39.7482L15.5779 40.0232L15.699 39.2539L16.9519 39.4511L16.4779 42.4625L15.225 42.2653L15.3461 41.496L10.7081 40.7659L10.587 41.5352L9.33411 41.338L9.80815 38.3266L11.061 38.5238L10.9399 39.2932L12.5885 39.5527L13.0643 36.5303L11.4157 36.2708L11.2946 37.0401L10.0417 36.8429L10.5157 33.8315L11.7686 34.0287L11.6475 34.798L16.2855 35.5281L16.4066 34.7588L17.6595 34.956ZM25.8887 22.5648L23.9756 24.7197L23.0271 23.8777L23.4112 23.445L22.6848 23.1572L21.0524 24.996L21.4021 25.7082L21.8527 25.2006L22.8012 26.0427L20.9103 28.1727L19.9618 27.3306L20.3976 26.8397L18.2603 22.1751L17.5955 22.924L16.647 22.0819L18.2941 20.2265L24.4822 22.2386L24.9401 21.7227L25.8887 22.5648ZM21.6201 22.7477L19.5952 21.9618L19.5509 22.0117L20.5343 23.9708L21.6201 22.7477ZM36.4673 12.2267C36.722 13.0096 36.655 13.6788 36.2663 14.2343C35.8824 14.7804 35.3518 15.1636 34.6747 15.3838L33.6167 15.728L33.9747 16.8284L35.0327 16.4842L35.425 17.6903L32.2087 18.7366L31.8163 17.5305L32.5569 17.2896L31.1044 12.8248L30.3638 13.0657L29.9714 11.8596L33.1243 10.8339C33.9778 10.5563 34.6921 10.5462 35.2672 10.8037C35.8424 11.0611 36.2424 11.5355 36.4673 12.2267ZM34.9506 12.7435C34.8405 12.405 34.6604 12.175 34.4103 12.0535C34.1672 11.9298 33.8094 11.9448 33.3368 12.0985L32.5222 12.3636L33.2278 14.5325L34.0213 14.2743C34.5079 14.116 34.8097 13.9047 34.9265 13.6405C35.0504 13.374 35.0585 13.075 34.9506 12.7435ZM52.3834 13.0472C52.2184 13.8538 51.8298 14.4027 51.2175 14.6938C50.614 14.9792 49.9635 15.0505 49.2659 14.9078L48.1759 14.6848L47.944 15.8184L49.034 16.0414L48.7797 17.284L45.4661 16.6061L45.7203 15.3635L46.4833 15.5196L47.4244 10.9197L46.6614 10.7636L46.9156 9.521L50.1639 10.1856C51.0431 10.3655 51.6693 10.7093 52.0424 11.2172C52.4154 11.7251 52.5291 12.3351 52.3834 13.0472ZM50.8093 12.7479C50.8807 12.3991 50.8376 12.1102 50.6801 11.8811C50.5298 11.6535 50.2112 11.4899 49.7243 11.3903L48.885 11.2186L48.4279 13.4531L49.2454 13.6203C49.7468 13.7229 50.1135 13.6882 50.3456 13.5161C50.5849 13.3455 50.7395 13.0894 50.8093 12.7479ZM67.0353 21.2388L66.5695 20.8251L62.9137 21.7746L61.8794 22.9392L62.7612 23.7223L61.9189 24.6707L59.0906 22.1587L59.9328 21.2104L60.7647 21.9492L61.8064 20.7763L62.2603 16.998L61.7779 16.5695L62.6201 15.6212L64.8578 17.6086L64.0156 18.5569L63.5664 18.158L63.2615 20.3275L63.3114 20.3719L65.4214 19.8055L64.9057 19.3475L65.7479 18.3991L67.8775 20.2905L67.0353 21.2388ZM69.5261 37.416C69.2049 37.2726 68.8839 36.9768 68.563 36.5285C68.2444 36.0872 68.0033 35.6202 67.8396 35.1275C67.5145 34.1491 67.5553 33.225 67.9619 32.3552C68.3756 31.483 69.0928 30.8774 70.1134 30.5383C70.6484 30.3606 71.2348 30.2908 71.8728 30.329C72.5107 30.3672 73.1087 30.5788 73.6665 30.9641C74.2244 31.3493 74.6471 31.9748 74.9347 32.8406C75.1288 33.4248 75.2081 33.9573 75.1724 34.4381C75.1438 34.9166 75.0636 35.2988 74.932 35.5849L73.3938 36.2835L72.9059 35.1677L73.7648 34.7182C73.8237 34.4954 73.8415 34.2433 73.8183 33.9618C73.7951 33.6803 73.745 33.4234 73.6678 33.1912C73.4714 32.5999 73.1176 32.1938 72.6065 31.9728C72.0977 31.7588 71.4667 31.777 70.7136 32.0272C69.9182 32.2914 69.4041 32.6732 69.1714 33.1726C68.9387 33.672 68.9207 34.2173 69.1171 34.8086C69.3018 35.3646 69.5418 35.7695 69.8371 36.0231L70.9103 35.8307L71.1871 37.0166L69.5261 37.416ZM68.1143 50.9019L69.1729 45.5767L70.4169 45.824L70.2651 46.5878L74.8701 47.5033L75.0219 46.7394L76.266 46.9867L75.626 50.2059L74.382 49.9585L74.5794 48.9655L69.9744 48.0501L69.6056 49.9052L70.9372 50.3967L70.5808 51.6191L68.1143 50.9019ZM62.8312 60.255L64.7003 57.8467L65.7023 58.6244L65.2248 59.2396L68.9339 62.1182L69.4114 61.503L70.4134 62.2806L68.5444 64.6889L67.5424 63.9113L68.0199 63.296L64.3107 60.4174L63.8332 61.0327L62.8312 60.255ZM51.8337 67.7541L56.8568 65.3121L57.4114 66.4528L56.7109 66.7933L58.7637 71.0159L59.4641 70.6754L60.0187 71.8161L55.0556 74.2289L53.9313 72.425L55.0233 71.7704L55.6418 72.5336L57.4229 71.6677L56.6786 70.1368L53.937 71.4697L53.3873 70.339L56.129 69.0061L55.3701 67.4452L53.529 68.3402L53.7472 69.298L52.5579 69.7525L51.8337 67.7541ZM35.7744 74.4527L36.5497 74.5268L37.1173 68.5904L37.949 68.6588L41.3769 73.6025L41.4212 73.6067L41.7368 70.3063L40.74 70.211L40.8607 68.9484L44.0172 69.2502L43.8965 70.5128L43.1212 70.4386L42.6743 75.1124L43.5714 75.1982L43.4507 76.4608L41.4904 76.2734L38.2664 71.6509L38.2221 71.6467L37.9341 74.6592L38.9752 74.7587L38.8544 76.0213L35.6537 75.7153L35.7744 74.4527ZM21.1688 65.3174L22.2422 66.0022L21.6321 67.161L22.5407 67.8594L25.402 64.137L24.467 63.4182L25.24 62.4126L28.2391 64.718L27.4661 65.7236L26.584 65.0456L23.7227 68.768L24.6312 69.4664L25.5942 68.5788L26.532 69.44L24.8638 71.245L19.8535 67.3936L21.1688 65.3174ZM15.5068 51.1639C16.2002 50.8803 16.8243 50.8975 17.3791 51.2156C17.9339 51.5336 18.3783 52.1011 18.7124 52.9181C18.8977 53.3712 19.0247 53.8482 19.0933 54.349C19.1591 54.843 19.1286 55.2681 19.0019 55.6245L17.2597 56.0966L16.912 54.9526L17.7298 54.6302C17.7579 54.3462 17.752 54.1162 17.7121 53.9402C17.6653 53.767 17.618 53.6221 17.5703 53.5054C17.4215 53.1415 17.2547 52.8611 17.07 52.6642C16.8784 52.4701 16.6144 52.4418 16.278 52.5794C15.9073 52.731 15.7163 52.9694 15.7051 53.2946C15.6869 53.6225 15.7193 53.9859 15.8023 54.3847C15.8793 54.7298 15.9338 55.0882 15.9656 55.4599C15.9877 55.8275 15.9235 56.1702 15.7731 56.4882C15.6158 56.809 15.2968 57.0676 14.8163 57.2642C14.0679 57.5702 13.4389 57.531 12.929 57.1465C12.4123 56.7648 12.0304 56.2719 11.7833 55.6677C11.6036 55.2284 11.501 54.7815 11.4755 54.3272C11.4431 53.8756 11.4966 53.4971 11.6362 53.1916L13.0629 52.536L13.6165 53.5958L12.8718 54.0085C12.8253 54.2279 12.8179 54.4353 12.8497 54.6306C12.8787 54.8191 12.9269 54.9957 12.9943 55.1605C13.1066 55.4351 13.2487 55.6454 13.4206 55.7915C13.5897 55.9307 13.7944 55.9511 14.0347 55.8529C14.3162 55.7377 14.4641 55.541 14.4785 55.2627C14.4929 54.9843 14.4727 54.6801 14.4178 54.3499C14.3604 54.0529 14.3088 53.7013 14.2629 53.2953C14.2074 52.8853 14.2608 52.4868 14.4231 52.0999C14.5758 51.7089 14.937 51.3969 15.5068 51.1639Z" fill="#1A1B27"/>
</g>
</g>
</g>
<defs>
<clipPath id="clip0_13_94">
<rect width="86" height="86" fill="white"/>
</clipPath>
<clipPath id="clip1_13_94">
<rect width="86" height="86" fill="white"/>
</clipPath>
<clipPath id="clip2_13_94">
<rect width="86" height="86" fill="white"/>
</clipPath>
</defs>
</svg>
