<svg width="23" height="23" viewBox="0 0 23 23" fill="none" xmlns="http://www.w3.org/2000/svg">
<path d="M0 11.3728V22.1484H5.44514V10.4844V7.23132H0V11.3728Z" fill="white"/>
<path d="M16.9815 7.29984C14.7564 7.29984 13.2552 8.26009 12.6276 9.18598H12.4301V7.23132H8.42334V10.2792V22.1484H12.9438V14.913C12.9438 12.9717 13.1304 11.0998 15.5059 11.0998C17.8938 11.0998 17.8754 13.3135 17.8754 15.0494V22.1484H22.3959V14.12C22.3959 13.3543 22.4186 12.5824 22.3369 11.9262C21.9956 9.11088 20.7762 7.29984 16.9815 7.29984Z" fill="white"/>
<path d="M2.86746 0.00012207C1.43436 0.00012207 0.273926 1.16191 0.273926 2.59714C0.273926 4.03247 1.43436 5.19394 2.86746 5.19394C4.30066 5.19394 5.46058 4.03247 5.46058 2.59714C5.46048 1.16191 4.30056 0.00012207 2.86746 0.00012207Z" fill="white"/>
</svg>
