<svg width="19" height="15" viewBox="0 0 19 15" fill="none" xmlns="http://www.w3.org/2000/svg">
<path d="M18.074 1.73869C17.4096 2.03403 16.6945 2.23325 15.9442 2.32241C16.7103 1.86379 17.2977 1.13735 17.5747 0.270764C16.8582 0.695988 16.0649 1.00454 15.22 1.17111C14.5438 0.450539 13.58 0 12.5135 0C10.4659 0 8.80569 1.66017 8.80569 3.70814C8.80569 3.99835 8.83834 4.28122 8.90181 4.55309C5.81995 4.39826 3.08737 2.92227 1.25843 0.678744C0.939234 1.22614 0.756524 1.86306 0.756524 2.54327C0.756524 3.82958 1.41105 4.96474 2.40605 5.62954C1.79849 5.6101 1.22651 5.44316 0.726439 5.16543C0.726072 5.18084 0.726072 5.19661 0.726072 5.21239C0.726072 7.00868 2.00431 8.50705 3.7008 8.84826C3.38968 8.93264 3.06205 8.97813 2.72378 8.97813C2.48457 8.97813 2.25233 8.95502 2.02596 8.91136C2.49814 10.3844 3.86737 11.4568 5.48975 11.4866C4.22068 12.4812 2.62215 13.0741 0.884568 13.0741C0.585554 13.0741 0.290209 13.0565 0 13.022C1.64146 14.0746 3.59037 14.688 5.6842 14.688C12.505 14.688 16.2344 9.03794 16.2344 4.13777C16.2344 3.97707 16.2311 3.81674 16.2242 3.65751C16.9484 3.1358 17.5773 2.48237 18.074 1.73869Z" fill="white"/>
</svg>
