<svg width="24" height="24" viewBox="0 0 24 24" fill="none" xmlns="http://www.w3.org/2000/svg">
<path d="M11.8948 5.71143C8.53676 5.71143 5.75439 8.44582 5.75439 11.8518C5.75439 15.2578 8.48879 17.9922 11.8948 17.9922C15.3008 17.9922 18.0352 15.2098 18.0352 11.8518C18.0352 8.49379 15.2528 5.71143 11.8948 5.71143ZM11.8948 15.7855C9.73605 15.7855 7.9611 14.0106 7.9611 11.8518C7.9611 9.69309 9.73605 7.91813 11.8948 7.91813C14.0535 7.91813 15.8285 9.69309 15.8285 11.8518C15.8285 14.0106 14.0535 15.7855 11.8948 15.7855Z" fill="white"/>
<path d="M18.273 6.95619C19.0413 6.95619 19.6642 6.33334 19.6642 5.56501C19.6642 4.79668 19.0413 4.17383 18.273 4.17383C17.5047 4.17383 16.8818 4.79668 16.8818 5.56501C16.8818 6.33334 17.5047 6.95619 18.273 6.95619Z" fill="white"/>
<path d="M21.8751 1.96685C20.6279 0.671605 18.8529 0 16.8381 0H6.95591C2.78236 0 0 2.78237 0 6.95592V16.7901C0 18.8529 0.671605 20.6279 2.01481 21.9231C3.31005 23.1704 5.03704 23.794 7.00388 23.794H16.7901C18.8529 23.794 20.5799 23.1224 21.8272 21.9231C23.1224 20.6759 23.794 18.9009 23.794 16.8381V6.95592C23.794 4.9411 23.1224 3.21411 21.8751 1.96685ZM21.6832 16.8381C21.6832 18.3252 21.1556 19.5245 20.2921 20.3401C19.4286 21.1556 18.2293 21.5873 16.7901 21.5873H7.00388C5.56473 21.5873 4.36543 21.1556 3.50194 20.3401C2.63845 19.4766 2.2067 18.2773 2.2067 16.7901V6.95592C2.2067 5.51676 2.63845 4.31747 3.50194 3.45397C4.31746 2.63845 5.56473 2.2067 7.00388 2.2067H16.8861C18.3252 2.2067 19.5245 2.63845 20.388 3.50194C21.2035 4.36544 21.6832 5.56473 21.6832 6.95592V16.8381Z" fill="white"/>
</svg>
