<svg width="387" height="259" viewBox="0 0 387 259" fill="none" xmlns="http://www.w3.org/2000/svg">
<path d="M-4.68657 245.161C-3 245.231 156.701 245.816 141.699 245.188C134.372 249.774 103.773 251.46 84.9706 218.918C72.694 191.498 71.9648 166.962 88.4707 141.585C105.036 116.119 148.347 114.392 167.427 135.58C187.137 157.469 185.444 192.155 168.311 217.088C151.251 241.916 133.404 246.68 109.189 234.496C85.7345 222.693 73.4997 189.044 85.7246 160.185C97.9116 131.415 121.981 116.703 145.918 129.937C170.674 143.624 182.48 171.039 178.142 188.414C173.783 205.874 171.177 218.705 158.603 223.486C146.16 228.215 115.429 211.159 114.204 182.108C113.001 153.559 120.143 139.527 120.375 135.02C120.606 130.524 109.108 186.53 127.042 204.564C145.514 223.137 161.168 226.798 183.711 215.809C206.648 204.625 217.715 178.911 215.066 178.905C212.427 178.898 211.7 199.123 204.377 200.869C197.103 202.603 183.377 206.009 184.683 204.653C185.991 203.297 190.702 164.941 186.33 156.69C181.998 148.513 104.007 161.268 129.276 162.775C155.273 164.324 211.844 135.506 216.255 150.264C220.72 165.208 222.376 234.918 233.429 237.748C244.621 240.613 278.033 234.484 272.342 234.572C266.679 234.66 240.623 241.147 236.469 232.888C232.352 224.698 226.556 143.542 216.451 141.32C206.461 139.123 120.172 158.79 123.031 156.107C125.894 153.419 116.353 96.6389 114.536 87.2394C112.732 77.9082 89.0211 78.4196 90.8212 75.1186C92.6213 71.8171 94.9401 70.6204 104.731 74.7294C114.653 78.8936 121.031 89.8572 119.992 90.6341C118.954 91.4107 136.137 89.9139 137.419 84.3346C138.699 78.7653 134.745 76.7714 130.567 72.9807C126.417 69.2156 112.873 69.2553 119.199 67.8178C125.564 66.3704 134.638 65.1227 138.943 73.6261C143.289 82.2128 147.443 96.0944 145.296 98.0416C143.152 99.9857 117.274 98.0661 127.813 101.324C138.496 104.628 176.123 93.7823 180.824 101.171C185.566 108.627 193.731 146.004 188.438 140.613C183.19 135.267 191.747 106.884 175.682 105.539C159.898 104.217 129.483 101.63 130.508 108.259C131.537 114.92 152.225 104.873 166.661 119.142C181.441 133.752 183.318 141.868 183.318 141.868C183.318 141.868 165.983 194.411 164.818 191.591C163.656 188.779 166.964 163.972 166.321 164.205C165.679 164.438 135.393 168.218 134.274 170.265C133.154 172.313 129.508 192.866 131.129 188.979C132.75 185.094 126.64 176.403 123.1 182.304C119.562 188.201 125.231 196.721 127.452 193.073C129.675 189.426 123.686 182.761 125.762 185.965C127.847 189.181 196.285 179.808 199.82 178.872C203.367 177.935 206.531 167.775 205.649 167.778C204.769 167.781 137.384 178.247 137.384 178.247C137.384 178.247 122.934 110.303 122.571 109.66C122.208 109.017 109.796 109.449 108.271 112.318C106.748 115.188 108.415 152.91 112.102 150.646C115.799 148.375 106.811 117.575 112.593 115.656C118.405 113.728 140.047 112.368 138.931 114.611C137.816 116.856 137.265 119.969 137.816 116.856C138.367 113.745 145.029 74.3218 151.635 66.1655C158.259 57.987 168.536 55.8403 171.701 64.1509C174.892 72.5289 188.229 97.7125 184.582 99.2036C180.946 100.689 166.805 114.857 162.957 107.38C159.141 99.9658 158.065 86.5521 155.528 83.8178C153.003 81.0964 149.417 79.7453 151.493 83.1357C153.579 86.539 155.258 85.3654 153.579 86.5389C151.901 87.7107 148.437 88.0866 151.407 89.7063C154.39 91.333 158.847 87.3961 161.082 92.808C163.33 98.249 175.048 123.636 181.693 126.875C188.396 130.141 237.061 111.064 239.072 111.233C241.089 111.402 251.307 108.508 248.613 107.195C245.927 105.888 235.383 106.016 238.796 103.118C242.217 100.214 256.436 101.088 252.126 100.779C247.834 100.47 238.433 99.1991 233.952 100.289C229.489 101.377 204.367 108.219 192.821 106.567C181.424 104.937 190.831 115.025 191.395 110.921C191.959 106.824 182.843 100.616 179.429 90.467C176.046 80.4115 172.363 63.0204 174.495 66.6202C176.637 70.235 184.985 87.7708 185.876 80.378C186.765 73.0088 182.572 61.551 184.745 64.9457C186.928 68.3546 193.295 85.8321 193.512 92.1037C193.73 98.3975 189.948 103.279 192.057 103.879C194.17 104.481 248.491 101.61 241.363 98.1626C234.299 94.7476 208.225 102.156 204.843 99.5548C201.477 96.9646 202.88 93.2886 201.582 93.5686C200.288 93.8485 189.76 96.3031 194.673 95.6557C199.608 95.0042 202.262 92.4111 202.138 89.4832C202.014 86.5609 193.356 64.9019 190.296 61.9826C187.252 59.0779 184.113 59.2644 184.089 59.9248C184.066 60.5849 183.606 73.3948 178.735 69.6828C173.898 65.9953 170.463 53.7649 166.555 54.2274C162.662 54.6876 156.597 58.9538 159.654 58.5519C162.722 58.1496 173.021 56.6527 177.832 43.9529C182.633 31.2785 180.655 25.5823 183.143 19.5757C185.629 13.5721 194.937 13.7328 195.68 10.2259C196.422 6.72515 196.558 14.8987 199.086 14.0522C201.618 13.2039 194.826 5.29497 180.436 3.73105C166.28 2.19319 157.807 20.5144 154.539 31.1792C151.263 41.869 153.495 51.3895 149.858 56.3481C146.226 61.3008 140.41 74.5655 143.832 78.5037C147.275 82.4656 150.146 58.9128 159.413 54.6746C168.752 50.4038 170.677 53.5346 174.968 43.4966C175.27 31.344 181.212 9.47829 189.194 10.5623C194.382 10.1398 199.619 10.5537 201.189 19.9547C202.769 29.4201 197.934 54.0259 190.545 54.7023C183.211 55.3728 177.677 48.088 181.36 49.1548C185.06 50.2245 193.673 74.4286 194.622 84.2041C195.578 94.0426 189.533 115.52 189.783 120.745C190.034 125.986 195.45 131.131 209.01 127.595C222.737 124.017 247.87 110.488 258.623 120.982C269.553 131.653 250.469 206.619 245.571 207.765C240.691 208.907 236.563 208.1 240.019 207.915C243.486 207.729 247.171 209.022 258.084 212.93C269.139 216.888 278.88 222.374 266.193 223.819C253.654 225.247 239.417 226.114 237.844 223.851C236.276 221.593 233.636 205.609 233.674 203.902C233.711 202.198 232.706 155.548 236.019 148.633C239.332 141.72 245.26 140.201 241.119 142.874C236.99 145.54 222.255 151.869 224.78 149.011C227.309 146.15 241.299 134.128 232.721 135.004C224.213 135.871 200.825 139.098 206.793 136.207C212.791 133.303 229.798 125.938 214.677 128.621C199.766 131.267 195.077 129.302 202.538 125.677C210.042 122.032 224.298 114.703 239.452 114.482C254.845 114.257 265.679 110.395 266.613 125.998C267.556 141.745 253.534 204.699 251.66 205.161C249.789 205.623 277.569 210.312 273.953 212.993C270.344 215.666 270.344 215.666 270.344 215.666C270.344 215.666 260.235 226.167 265.198 227.048C270.187 227.935 279.289 229.19 274.695 231.332C270.117 233.467 250.449 234.13 249.027 235.084C247.604 236.039 214.533 241.637 231.147 245.198C248.074 248.824 306.324 248.183 294.193 251.339C282.183 254.462 269.356 255.478 287.532 256.475C306.041 257.49 325.902 252.55 319.835 248.675C313.814 244.83 299.194 247.863 312.354 253.267C325.718 258.755 337.643 255.889 359.906 251.99C382.597 248.017 399.181 242.675 397.519 240.742C395.864 238.814 387.778 221.557 389.861 218.428C391.944 215.295 408.528 209.767 414.054 213.592C419.617 217.444 426.284 240.828 421.451 246.927C416.626 253.016 399.502 259.15 400.755 253.785C402.009 248.427 406.047 246.135 406.234 242.094C406.421 238.059 413.294 239.886 413.176 234.756C413.058 229.639 400.194 211.745 401.642 216.814C403.097 221.902 418.33 232.203 411.279 235.511C404.259 238.802 391.437 244.016 389.681 239.16C387.933 234.323 393.312 216.911 386.416 219.678C379.556 222.427 357.019 221.648 347.224 222.723C337.513 223.788 327.397 235.171 339.069 230.053C350.842 224.892 385.173 208.587 392.686 197.142C400.211 185.681 408.821 184.058 406.821 190.865M406.821 190.865C406.504 191.948 388.222 235.798 361.808 213.765C343.144 198.196 356.234 201.521 332.722 191.26C309.841 181.274 304.834 187.897 321.345 186.247C338.109 184.571 350.216 174.953 351.682 166.832C353.143 158.731 348.711 141.704 348.728 144.203C348.745 146.706 337.264 168.365 330.015 168.934C322.812 169.497 297.48 152.508 298.725 148.33M406.821 190.865C415.843 177.05 398.701 135.187 396.636 110.409C394.601 85.9772 387.877 73.3028 380.015 62.4326C372.256 51.7018 363.497 54.6128 351.009 48.1542C338.715 41.7935 360.165 46.4071 354.899 40.5302C349.675 34.6999 340.628 34.8312 334.061 30.345C327.551 25.8976 336.477 29.9424 340.84 28.7022C345.217 27.4556 323.721 22.2264 321.813 18.8929C319.914 15.5724 323 9.10971 333.491 3.64968C344.064 -1.85093 355.759 -0.507119 366.975 10.5471C378.383 21.7905 374.527 33.5266 376.652 41.0722C378.788 48.6615 394.563 58.2362 395.142 74.9363C395.726 91.7854 400.025 84.8902 404.716 83.947C409.427 82.9997 390.929 85.2661 383.673 83.3449C376.472 81.4398 376.339 72.1351 369.642 64.1888C363.015 56.3252 351.87 63.1873 347.626 57.6617C343.411 52.1758 343.336 39.6087 330.216 35.5246C317.29 31.5034 320.385 27.571 320.623 24.0744C320.863 20.5836 323.247 27.3684 322.771 31.3576C322.294 35.3528 323.02 52.1858 326.878 56.4476C330.761 60.7359 340.006 56.8939 340.006 56.8939C340.006 56.8939 344.441 60.4677 345.949 64.938C347.46 69.4258 341.824 76.1958 337.434 84.1046C333.044 92.0117 322.8 100.126 319.156 102.666C315.521 105.202 316.493 101.795 317.706 99.1039C318.917 96.4122 320.612 100.928 313.113 101.432C305.668 101.933 274.14 99.5037 265.415 96.7796C256.779 94.0845 246.09 97.5211 244.102 95.7459C242.121 93.975 253.824 94.4341 256.322 94.3353C258.825 94.2362 267.714 96.6921 278.112 97.2357C288.622 97.7852 285.798 98.8373 284.843 100.767C283.887 102.697 284.397 98.4161 284.397 98.4161C284.397 98.4161 315.049 98.4787 317.949 97.4103C320.855 96.3392 339.118 76.3225 342.544 72.5534C345.974 68.7783 359.085 63.0474 362.309 60.4636C365.539 57.8737 359.055 59.9152 353.621 64.7791C348.203 69.6284 332.076 96.4033 325.967 99.7717C319.883 103.124 318.91 109.2 320.611 113.757C322.319 118.33 322.561 110.542 320.855 107.202C319.156 103.873 281.523 105.148 270.39 103.405C259.39 101.684 256.067 95.9735 248.591 96.2648C241.172 96.5534 254.197 99.0721 256.424 101.79C258.658 104.518 250.16 109.247 248.064 112.353C245.968 115.458 259.217 112.48 264.26 113.034C269.331 113.589 272.299 117.058 278.113 118.086C283.964 119.12 284.508 111.469 284.328 105.529C284.15 99.6085 281.399 117.28 281.369 120.145C281.34 123.015 299.81 125.936 311.846 127.357C324.037 128.799 357.064 107.691 358.046 104.947C359.029 102.207 336.297 111.395 337.061 116.759C337.827 122.143 344.281 126.893 346.813 131.052C349.355 135.229 350.85 157.739 349.391 166.333C347.928 174.952 327.814 182.245 320.105 182.213C312.453 182.181 317.392 173.182 313.713 166.956C310.058 160.77 311.744 169.945 313.208 174.181C314.676 178.432 307.828 171.196 296.911 169.725C286.117 168.273 303.671 174.924 309.77 175.925C315.909 176.932 321.345 191.549 322.092 191.554C322.838 191.561 315.61 215.082 308.415 216.717C301.266 218.343 278.198 174.663 279.272 162.915C280.342 151.224 278.728 147.609 298.725 148.33M406.821 190.865C397.815 204.655 350.673 167.848 364.066 175.985C377.686 184.262 391.635 197.916 377.258 190.994C363.121 184.189 360.454 175.47 346.695 180.541C333.079 185.558 327.05 192.058 315.096 204.105C303.203 216.086 293.158 240.134 304.961 248.772C316.952 257.55 324.914 244.776 319.194 253.49C313.482 262.196 590.18 255.915 590.18 255.915M298.725 148.33C299.969 144.154 330.743 153.653 338.203 148.088C345.693 142.5 344.144 126.404 342.42 130.386C340.695 134.369 340.971 151.052 331.735 151.899C322.575 152.739 319.131 149.064 298.725 148.33Z" stroke="#E9E990" stroke-miterlimit="10" stroke-linecap="round" stroke-linejoin="round"/>
</svg>
