<svg width="387" height="269" viewBox="0 0 387 269" fill="none" xmlns="http://www.w3.org/2000/svg">
<path d="M-6 228.351H246.048C246.048 228.351 242.7 213.911 235.584 208.888C228.469 203.866 208.796 197.587 208.796 197.587C208.796 197.587 205.657 201.773 197.495 201.145C189.333 200.517 187.659 196.331 187.659 196.331C187.659 196.331 178.241 197.169 178.032 200.308C177.823 203.447 185.357 207.842 188.705 208.679C192.054 209.516 197.077 204.493 197.077 204.493C197.077 204.493 202.367 211.399 206 210.981C209.633 210.562 215.868 206.884 215.284 203.238C214.7 199.591 208.587 196.331 208.587 196.331L208.796 189.634C208.796 189.634 201.367 194.134 192.263 190.994C183.159 187.855 180.753 178.752 180.753 178.752C180.753 178.752 173.323 177.601 170.603 173.624C167.882 169.648 168.405 164.521 169.766 163.265C171.126 162.009 176.044 165.567 176.044 165.567C176.044 165.567 167.463 157.928 168.824 150.499C170.184 143.069 178.974 123.083 197.39 124.967C215.807 126.85 223.864 136.268 225.12 141.29C226.376 146.313 224.806 160.439 224.178 161.8C223.55 163.16 221.772 162.951 221.772 162.951C221.772 162.951 217.691 156.045 217.691 152.592C217.691 152.592 216.749 154.998 216.958 156.149C216.958 156.149 204.087 158.556 200.006 156.149C195.925 153.743 197.6 143.069 197.6 143.069C197.6 143.069 194.984 153.115 195.925 154.998C195.925 154.998 185.88 158.556 180.334 157.091C174.788 155.626 178.451 145.267 178.451 145.267C178.451 145.267 175.521 157.091 176.253 159.707C176.986 162.323 171.23 160.963 169.766 161.591C168.301 162.218 166.522 165.253 167.359 169.334C168.196 173.415 171.963 176.764 173.637 177.914C175.311 179.066 179.706 180.112 179.706 180.112C179.706 180.112 179.288 183.879 177.509 184.298C175.73 184.716 167.359 180.531 168.51 178.647C169.661 176.764 170.079 176.597 170.079 176.597C170.079 176.597 164.847 177.706 164.847 182.833C164.847 187.96 168.301 190.576 165.475 193.087C162.65 195.599 158.883 195.913 158.883 195.913C158.883 195.913 158.778 197.273 165.789 196.75C172.8 196.227 176.986 189.948 176.986 187.96C176.986 185.972 180.648 181.054 180.648 181.054C180.648 181.054 182.95 187.332 185.252 188.797C187.554 190.262 190.693 191.936 190.693 191.936C190.693 191.936 190.997 194.678 189.752 196.122C188.507 197.566 173.323 199.575 166.103 204.389C158.883 209.202 152.814 226.154 153.023 226.886C153.232 227.619 171.544 227.095 172.068 226.572C172.591 226.049 164.429 208.783 165.266 208.156C166.103 207.528 174.056 226.154 174.788 226.572C175.521 226.991 225.853 226.677 226.585 226.363C227.318 226.049 231.398 210.144 232.026 210.144C232.654 210.144 227.945 227.095 228.364 227.305C228.782 227.514 246.676 227.409 247.513 226.991C248.35 226.572 241.444 213.283 238.828 209.097C236.212 204.912 210.575 196.331 210.261 195.494C209.947 194.657 210.157 188.274 210.157 188.274C210.157 188.274 212.505 186.209 214.862 183.593C217.038 181.179 219.222 178.296 219.574 176.136C219.574 176.136 227.317 172.578 228.573 166.823C229.829 161.068 225.643 158.975 225.643 158.975C225.643 158.975 225.957 162.951 223.969 164.416C221.981 165.881 221.458 164.939 221.144 165.881C220.83 166.823 219.679 172.055 219.679 172.787C219.679 173.52 223.864 175.299 223.655 177.391C223.446 179.484 224.074 183.251 223.027 184.193C221.981 185.135 216.644 189.216 215.702 188.483C214.761 187.751 214.97 184.926 215.702 184.088C216.435 183.251 220.202 180.112 220.725 179.903C221.248 179.693 226.376 183.356 228.05 190.262C229.724 197.168 230.875 200.726 234.223 200.622C234.223 200.622 227.84 201.982 221.562 198.319C215.284 194.657 216.121 191.518 216.121 191.518C216.121 191.518 218.109 189.634 219.155 189.006C220.202 188.378 224.492 184.507 225.329 182.519C226.166 180.53 224.701 175.508 224.91 174.88C225.12 174.252 230.352 170.381 230.456 164.834C230.561 159.289 228.154 157.719 228.154 157.719C228.154 157.719 246.885 144.953 248.664 144.848C250.443 144.744 250.547 147.883 257.977 147.464C265.406 147.046 271.266 141.081 272.731 141.081C274.196 141.081 286.125 143.697 287.171 145.79C288.218 147.883 278.068 163.788 275.138 163.474C272.208 163.16 259.756 151.441 258.395 152.906C257.035 154.371 252.326 164.311 247.827 163.998C243.327 163.684 239.665 152.382 240.397 151.441C241.13 150.499 249.501 146.313 250.861 144.534C252.222 142.756 251.803 134.28 251.594 133.547C251.384 132.815 247.617 136.686 242.49 135.431C237.363 134.175 229.41 126.223 228.991 112.515C228.573 98.807 230.142 91.1682 231.503 90.4357C232.863 89.7033 247.094 87.9244 250.024 84.7852C252.954 81.646 256.826 65.5314 256.407 64.6943C255.989 63.8572 233.7 59.253 224.283 70.7634C214.865 82.2738 215.493 94.0981 215.702 98.3884C215.911 102.679 208.901 107.492 209.11 111.887C209.319 116.282 216.435 123.921 218.214 127.06C219.992 130.199 225.329 136.059 225.643 138.256C225.957 140.454 237.572 135.954 238.304 136.059C239.037 136.163 240.606 138.466 245.315 137.838C250.024 137.21 269.696 121.618 270.534 121.095C271.371 120.572 279.428 118.479 279.637 112.933C279.846 107.387 277.23 104.981 275.452 104.876C273.673 104.771 269.278 108.643 269.278 108.643C269.278 108.643 271.266 97.9697 270.534 96.4001C269.801 94.8305 250.757 86.0407 249.501 81.7505C248.245 77.4602 253.582 62.6014 255.465 62.6014C257.349 62.6014 276.184 63.1246 279.219 69.5076C282.253 75.8905 279.846 81.8551 280.579 83.634C281.311 85.4129 288.845 93.2609 290.834 101.527C292.822 109.794 288.009 117.433 288.009 121.095C288.009 124.758 293.345 129.99 292.089 133.129C290.834 136.268 273.359 136.582 273.359 136.582C273.359 136.582 277.021 130.908 276.498 126.473C275.975 122.037 269.383 122.874 269.383 122.874C269.383 122.874 265.93 125.909 265.93 127.792C265.93 129.676 270.952 139.198 271.789 139.721C272.626 140.244 310.925 143.383 316.785 158.452C322.644 173.52 318.04 229.607 318.04 229.607M318.04 229.607C318.04 229.607 293.345 228.77 292.089 226.258C290.834 223.747 296.066 171.845 294.392 168.706C292.717 165.567 287.067 227.095 285.393 229.607C283.718 232.118 78.4146 232.327 75.9033 230.862C73.3919 229.397 52.2546 222.073 50.7897 218.306C49.3247 214.539 65.4393 144.639 76.5311 132.71C87.623 120.781 111.481 117.223 113.364 117.014C115.248 116.805 113.992 121.072 114.829 123.333C115.666 125.594 133.717 138.674 135.286 136.948C136.856 135.221 135.286 121.095 136.071 120.624C136.856 120.153 150.826 130.826 151.139 133.338C151.453 135.849 149.727 152.644 147.058 152.487C144.39 152.33 137.484 138.047 135.443 139.145C133.403 140.244 119.747 152.801 114.882 151.231C110.016 149.662 100.284 124.391 102.482 122.508C104.679 120.624 115.98 117.799 115.98 117.799L119.434 105.556C119.434 105.556 115.248 100.586 115.143 99.3299C115.039 98.0742 103.947 92.6329 107.4 83.9478C110.853 75.2627 116.818 81.3318 117.341 82.7967C117.864 84.2617 118.387 86.7731 118.387 86.7731C118.387 86.7731 123.514 77.3555 123.305 70.7631C123.096 64.1708 130.944 60.8223 133.246 60.7177C135.548 60.6131 144.861 68.4611 155.116 69.926C165.37 71.391 173.532 66.0543 181.276 69.6121C189.019 73.1699 198.541 66.9941 198.646 60.7167C198.751 54.4393 188.705 45.6495 180.648 47.2191C172.591 48.7887 162.022 37.6969 147.896 37.1737C133.769 36.6505 131.99 40.2083 126.758 40.7315C121.526 41.2547 111.9 36.8601 104.156 50.0447C96.4129 63.2293 105.307 81.9599 105.307 81.9599C105.307 81.9599 109.074 74.949 113.678 77.6697C118.283 80.3903 118.492 82.6924 118.806 82.9017C119.12 83.1109 123.515 75.5769 122.573 70.0309C121.631 64.485 129.898 58.3113 133.874 58.8345C137.85 59.3577 149.465 68.3567 155.534 68.6706C161.604 68.9846 165.58 67.9382 165.58 67.9382C165.58 67.9382 162.022 113.561 151.977 116.805C141.931 120.049 125.293 108.12 124.456 108.225C123.619 108.329 137.013 116.282 137.013 116.805C137.013 117.328 136.909 123.333 136.909 123.333C136.909 123.333 165.266 142.965 166.94 144.953C168.614 146.941 140.152 185.763 142.768 187.542C145.384 189.321 161.29 161.277 162.65 162.323C164.01 163.37 135.653 216.213 137.85 218.515C140.048 220.817 153.86 198.32 155.325 199.889C156.79 201.459 149.989 222.282 149.989 222.282M318.04 229.607H390.5" stroke="#E9E990" stroke-width="1.2" stroke-miterlimit="10" stroke-linecap="round" stroke-linejoin="round"/>
</svg>
