<svg width="387" height="320" viewBox="0 0 387 320" fill="none" xmlns="http://www.w3.org/2000/svg">
<path d="M367.993 204.297C369.001 204.463 370.226 204.859 370.379 205.242C371.782 209.046 359.84 213.578 354.966 216.348C345.434 221.199 339.514 224.148 335.75 228.743C336.413 230.76 338.774 235.05 342.155 240.845C354.685 227.314 371.974 221.926 373.339 215.493C372.127 208.842 371.119 205.497 370.264 204.999" stroke="#E9E990" stroke-miterlimit="10"/>
<path d="M343.074 321.753L339.731 312.345C338.736 304.366 365.071 271.329 374.475 251.67" stroke="#E9E990" stroke-miterlimit="10"/>
<path d="M390.985 262.917C390.985 262.917 384.72 308.209 381.594 322.174C379.451 330.574 369.919 341.54 366.36 351.369C363.374 355.927 355.68 355.927 326.92 352.94" stroke="#E9E990" stroke-miterlimit="10"/>
<path d="M205.63 267.819C204.864 266.504 203.831 265.304 202.478 264.231C202.606 263.683 204.571 262.317 205.528 261.908C207.263 262.087 207.914 262.227 209.279 263.593" stroke="#E9E990" stroke-miterlimit="10"/>
<path d="M202.478 264.232C192.437 262.074 192.832 263.134 186.21 267.193" stroke="#E9E990" stroke-miterlimit="10"/>
<path d="M178.452 260.887C182.638 261.806 187.856 262.061 191.658 263.887" stroke="#E9E990" stroke-miterlimit="10"/>
<path d="M208.041 262.725L208.769 257.504C214.013 252.117 219.218 245.683 223.812 238.751" stroke="#E9E990" stroke-miterlimit="10"/>
<path d="M226.734 275.287C224.896 277.878 224.144 278.248 221.86 281.44C220.622 283.086 219.333 284.542 214.102 284.133" stroke="#E9E990" stroke-miterlimit="10"/>
<path d="M379.311 352.084L380.025 348.803C394.635 335.629 401.384 314.056 399.458 287.963" stroke="#E9E990" stroke-miterlimit="10"/>
<path d="M383.738 310.839C403.234 289.124 402.8 281.146 401.805 258.653C396.969 242.262 379.91 221.633 372.982 216.514" stroke="#E9E990" stroke-miterlimit="10"/>
<path d="M341.249 183.438C344.834 183.591 346.417 185.161 348.56 189.566C354.659 197.634 361.664 202.535 368.21 200.825C372.624 190.14 384.72 176.468 371.91 158.086C368.35 144.133 328.77 143.852 320.656 159.95C323.335 160.218 325.695 161.098 327.354 163.498C325.593 167.851 325.925 172.217 328.63 176.609V185.302C328.63 185.302 332.407 181.089 335.967 180.387" stroke="#E9E990" stroke-miterlimit="10"/>
<path d="M367.687 200.939C367.687 200.939 367.495 204.667 369.766 207.603" stroke="#E9E990" stroke-miterlimit="10"/>
<path d="M373.339 268.049C373.9 302.937 365.926 323.03 362.226 350.514" stroke="#E9E990" stroke-miterlimit="10"/>
<path d="M362.8 247.113C358.908 254.466 352.975 261.78 351.125 269.185C351.125 269.185 349.887 283.75 350.359 290.784" stroke="#E9E990" stroke-miterlimit="10"/>
<path d="M355.961 266.057C366.36 241.7 385.116 244.458 390.985 262.917" stroke="#E9E990" stroke-miterlimit="10"/>
<path d="M360.388 226.483C360.388 226.483 363.667 231.002 369.996 249.525" stroke="#E9E990" stroke-miterlimit="10"/>
<path d="M329.485 237.526C329.217 238.088 328.528 239.671 328.273 240.219C315.705 267.219 312.923 295.584 300.049 322.34" stroke="#E9E990" stroke-miterlimit="10"/>
<path d="M336.886 239.709C335.61 250.381 331.616 259.712 329.332 269.759C325.198 287.95 320.885 306.103 311.265 323.413" stroke="#E9E990" stroke-miterlimit="10"/>
<path d="M334.576 227.147C334.257 227.134 333.07 227.517 330.991 229.305C307.922 247.725 310.588 276.933 307.82 302.937" stroke="#E9E990" stroke-miterlimit="10"/>
<path d="M328.234 231.679C315.679 236.288 312.489 247.687 305.433 260.504C305.433 260.504 303.724 272.325 305.28 279.295" stroke="#E9E990" stroke-miterlimit="10"/>
<path d="M304.63 270.78C304.63 270.78 298.875 278.874 296.745 286.278" stroke="#E9E990" stroke-miterlimit="10"/>
<path d="M301.159 292.826C296.961 290.426 293.848 288.32 291.398 284.695C291.054 283.431 295.468 283.852 298.48 281.618" stroke="#E9E990" stroke-miterlimit="10"/>
<path d="M284.074 292.265C287.494 289.418 287.634 285.001 291.794 284.056" stroke="#E9E990" stroke-miterlimit="10"/>
<path d="M257.382 298.175C277.235 286.559 283.079 302.656 289.905 308.924" stroke="#E9E990" stroke-miterlimit="10"/>
<path d="M284.074 292.265C284.074 292.265 278.779 291.792 274.951 294.805" stroke="#E9E990" stroke-miterlimit="10"/>
<path d="M298.173 321.026L277.389 315.473C273.841 321.485 272.476 329.03 271.685 336.983L292.764 344.246C293.657 336.306 295.188 328.519 298.173 321.026Z" stroke="#E9E990" stroke-miterlimit="10"/>
<path d="M260.865 310.06C261.439 306.077 260.151 299.975 256.744 297.677C251.895 297.575 244.074 296.682 242.224 297.384C245.924 300.728 246.077 308.541 242.364 312.818" stroke="#E9E990" stroke-miterlimit="10"/>
<path d="M287.341 318.14C287.341 318.14 292.764 317.898 295.469 316.621C297.599 317.757 299.909 317.898 302.346 317.323" stroke="#E9E990" stroke-miterlimit="10"/>
<path d="M278.805 225.743C289.574 236.288 294.754 245.262 291.335 258.653C291.335 258.653 287.099 286.916 284.598 291.792" stroke="#E9E990" stroke-miterlimit="10"/>
<path d="M244.635 283.852C237.669 279.627 229.413 281.146 223.71 271.176C218.44 256.942 230.83 237.564 233.535 226.318" stroke="#E9E990" stroke-miterlimit="10"/>
<path d="M260.584 249.679C270.55 249.96 284.827 255.385 289.803 251.823" stroke="#E9E990" stroke-miterlimit="10"/>
<path d="M289.599 252.142C289.842 250.738 289.599 248.415 289.905 246.398C292.763 249.526 290.939 262.087 284.393 264.934" stroke="#E9E990" stroke-miterlimit="10"/>
<path d="M261.337 255.461C259.462 249.474 262.014 245.121 263.711 240.564" stroke="#E9E990" stroke-miterlimit="10"/>
<path d="M287.775 257.504C281.37 273.027 271.736 286.507 262.409 295.686" stroke="#E9E990" stroke-miterlimit="10"/>
<path d="M262.294 251.811C260.304 262.355 251.194 272.746 247.481 286.278C236.852 286.418 226.275 288.129 215.595 286.712C207.914 285.703 202.223 285.69 197.655 284.427C191.11 283.15 182.995 276.589 179.295 277.878C175.173 278.159 172.443 280.763 168.947 282.895" stroke="#E9E990" stroke-miterlimit="10"/>
<path d="M224.641 272.682C224.641 272.682 221.26 277.84 211.588 286.405" stroke="#E9E990" stroke-miterlimit="10"/>
<path d="M224.565 237.564L220.15 248.53C215.774 255.819 210.249 262.878 203.78 269.759C196.201 271.801 190.115 274.878 176.59 275.452C172.609 274.738 166.625 271.61 164.634 273.321C160.653 279.448 160.768 282.486 159.224 288.129C158.369 290.695 159.798 291.116 161.074 290.414C163.256 286.52 165.208 281.861 167.62 278.733" stroke="#E9E990" stroke-miterlimit="10"/>
<path d="M176.59 275.452C177.011 270.104 177.597 264.997 178.299 260.21C174.178 259.342 169.789 258.346 165.055 257.504C164.43 262.482 163.869 267.678 163.358 273.027" stroke="#E9E990" stroke-miterlimit="10"/>
<path d="M230.255 222.616C227.589 226.828 225.292 231.424 223.85 236.849C223.85 236.849 224.373 237.934 228.316 240.526" stroke="#E9E990" stroke-miterlimit="10"/>
<path d="M239.047 225.743C228.839 237.143 238.523 245.543 254.039 237.564C254.039 237.564 258.517 235.509 264.017 230.939" stroke="#E9E990" stroke-miterlimit="10"/>
<path d="M236.571 220.331C236.571 220.331 239.225 221.76 239.799 231.449" stroke="#E9E990" stroke-miterlimit="10"/>
<path d="M249.484 206.518C250.619 213.501 242.083 219.194 230.83 222.181C226.415 222.615 227.601 218.199 225.994 216.207C224.731 215.786 224.386 215.02 224.769 213.922C227.129 213.897 229.783 213.462 231.404 213.067C231.225 211.599 226.887 212.352 224.999 212.352C222.715 211.65 224.233 209.697 223.85 208.369" stroke="#E9E990" stroke-miterlimit="10"/>
<path d="M51.0245 180.464C50.6034 182.544 50.463 184.663 50.5013 186.821C50.2079 186.936 49.4423 186.961 49.1106 186.821C49.085 184.434 49.1999 182.187 49.5954 180.259" stroke="#E9E990" stroke-miterlimit="10"/>
<path d="M74.4507 178.753C74.8717 180.834 75.0121 182.953 74.9866 185.11C75.2673 185.225 76.0456 185.251 76.3646 185.11C76.3901 182.723 76.2753 180.476 75.8798 178.549" stroke="#E9E990" stroke-miterlimit="10"/>
<path d="M82.1829 179.238C87.2993 185.761 90.3999 191.11 87.6567 201.68C91.8162 216.731 91.8672 236.326 91.2166 257.798" stroke="#E9E990" stroke-miterlimit="10"/>
<path d="M28.7209 178.178C26.4625 182.519 24.8676 192.706 25.9904 200.991C23.1068 215.097 23.5662 229.305 25.7225 243.551" stroke="#E9E990" stroke-miterlimit="10"/>
<path d="M64.7279 186.948C65.1235 194.442 64.9448 202.433 64.613 209.671C65.3403 210.348 68.2877 209.224 69.5509 207.718C70.1634 201.897 70.342 192.323 69.3723 184.255" stroke="#E9E990" stroke-miterlimit="10"/>
<path d="M35.5982 180.885C33.914 184.344 27.3301 201.399 25.9905 200.991" stroke="#E9E990" stroke-miterlimit="10"/>
<path d="M219.333 182.646L216.96 177.847L214.778 174.745L218.121 166.472C218.121 166.472 216.386 164.29 216.615 162.911C222.102 153.094 239.365 153.834 243.844 160.268C246.498 161.149 248.514 163.268 249.956 166.077" stroke="#E9E990" stroke-miterlimit="10"/>
<path d="M217.075 164.8C215.276 167.379 213.515 171.528 211.218 173.596L211.793 176.583C210.644 178.421 208.883 179.646 207.429 181.178C208.182 182.697 209.075 183.438 210.07 183.706C208.692 187.74 209.611 192.68 209.381 197.161C210.415 199.344 215.008 201.527 217.764 204.054C217.764 204.054 218.849 207.361 219.053 208.892" stroke="#E9E990" stroke-miterlimit="10"/>
<path d="M221.311 207.731C219.908 212.467 223.825 216.973 224.705 221.186C225.598 220.598 226.517 220.024 227.448 219.475" stroke="#E9E990" stroke-miterlimit="10"/>
<path d="M221.171 208.254C218.159 208.892 215.391 210.386 213.604 215.058L217.917 217.165L222.191 214.382" stroke="#E9E990" stroke-miterlimit="10"/>
<path d="M221.72 195.553C222.715 198.399 220.814 203.097 220.15 206.94C221.171 208.255 224.259 208.255 225.56 208.51" stroke="#E9E990" stroke-miterlimit="10"/>
<path d="M177.495 260.044C192.538 245.683 204.915 224.467 213.604 215.058" stroke="#E9E990" stroke-miterlimit="10"/>
<path d="M217.917 217.165C216.45 223.892 200.079 252.385 187.052 262.406" stroke="#E9E990" stroke-miterlimit="10"/>
<path d="M214.714 212.722C205.77 212.505 202.784 221.186 196.098 227.313C196.098 227.313 193.534 233.862 193.1 237.564" stroke="#E9E990" stroke-miterlimit="10"/>
<path d="M171.167 258.691C173.17 253.24 175.237 250.381 181.004 251.53C181.859 244.266 189.566 239.862 193.853 234.028" stroke="#E9E990" stroke-miterlimit="10"/>
<path d="M324.432 160.945C321.089 164.788 320.872 168.349 319.099 172.051L321.804 177.745L315.246 187C315.96 189.566 317.619 189.566 318.806 190.855C318.806 192.374 318.104 194.123 318.806 195.412L321.089 196.689C320.324 197.212 319.099 197.263 318.806 198.259C319.188 199.97 320.094 200.825 319.954 203.391C318.589 205.42 318.92 207.361 320.515 209.225C324.713 210.437 328.299 210.08 332.19 210.501C335.75 212.505 336.324 218.339 341.249 223.88" stroke="#E9E990" stroke-miterlimit="10"/>
<path d="M335.469 180.745C339.424 177.579 342.729 182.442 341.16 189.706C339.705 193.753 337.689 195.425 335.176 194.978" stroke="#E9E990" stroke-miterlimit="10"/>
<path d="M335.609 197.684C334.78 202.446 333.479 204.093 323.935 207.795" stroke="#E9E990" stroke-miterlimit="10"/>
<path d="M240.795 316.187C239.315 315.447 239.098 314.502 240.221 313.341C243.64 312.766 244.635 311.579 247.06 310.634L255.315 310.353C264.285 308.783 269.082 314.477 276.827 316.481" stroke="#E9E990" stroke-miterlimit="10"/>
<path d="M262.013 312.064C257.93 312.536 253.898 311.63 249.764 313.481C245.35 315.766 240.846 316.43 236.38 317.898" stroke="#E9E990" stroke-miterlimit="10"/>
<path d="M250.186 320.885C247.238 321.255 241.509 322.736 234.964 321.74C230.587 322.034 227.78 320.86 227.665 318.511" stroke="#E9E990" stroke-miterlimit="10"/>
<path d="M243.079 298.303C238.753 295.482 234.696 293.848 230.676 291.818M227.589 290.146C226.67 289.622 225.764 289.048 224.845 288.41C220.724 287.848 216.59 287.988 212.469 288.41C208.985 292.443 207.812 295.073 209.049 296.248C210.963 296.86 212.545 296.375 213.464 293.682L217.024 292.546" stroke="#E9E990" stroke-miterlimit="10"/>
<path d="M229.975 292.826C224.845 292.686 223.429 291.409 220.584 291.971C217.879 292.686 214.88 292.265 215.595 294.831C216.628 296.962 219.193 297.639 222.574 297.537L225.7 297.677C229.694 301.52 231.825 306.792 238.37 306.218" stroke="#E9E990" stroke-miterlimit="10"/>
<path d="M215.735 302.796C219.014 304.941 222.715 304.507 222.715 307.073C222.447 308.234 221.171 308.809 217.445 307.928C213.783 306.192 211.244 305.49 211.359 303.435M212.456 301.647C213.311 301.009 214.829 300.371 217.445 300.524" stroke="#E9E990" stroke-miterlimit="10"/>
<path d="M222.664 306.588L224.705 306.932C225.624 308.681 224.629 309.932 221.439 310.634C219.589 310.775 216.45 310.494 215.455 309.639C215.455 309.639 214.689 308.171 215.212 306.907" stroke="#E9E990" stroke-miterlimit="10"/>
<path d="M222.778 291.83L233.394 288.128C234.351 288.55 234.747 289.328 234.67 290.413L227.844 292.75M217.151 296.426L210.619 298.673L204.354 299.528L208.909 296.681L209.445 296.49M212.647 295.366L215.442 294.396" stroke="#E9E990" stroke-miterlimit="10"/>
<path d="M207.748 299.056C207.352 303.065 208.641 304.584 211.895 303.231C212.558 302.145 212.622 301.15 212.035 300.243" stroke="#E9E990" stroke-miterlimit="10"/>
<path d="M217.738 299.388L214.957 300.639" stroke="#E9E990" stroke-miterlimit="10"/>
<path d="M223.25 310.085C226.849 314.77 234.696 314.464 242.632 312.498" stroke="#E9E990" stroke-miterlimit="10"/>
<path d="M186.133 282.001C184.041 282.908 181.974 282.856 180.404 284.286C179.601 285.524 177.023 286.993 177.444 288.41C178.529 289.367 179.996 289.188 182.14 286.993L186.414 286.559" stroke="#E9E990" stroke-miterlimit="10"/>
<path d="M208.59 296.873L199.212 294.958C190.969 297.537 190.829 291.831 187.409 288.984" stroke="#E9E990" stroke-miterlimit="10"/>
<path d="M180.366 288.46C180.366 288.46 185.215 292.354 190.586 292.954" stroke="#E9E990" stroke-miterlimit="10"/>
<path d="M178.733 279.448C174.88 281.006 171.894 282.716 168.474 285.703C169.087 287.478 170.286 288.027 172.468 286.559C176.028 284.146 177.61 283.827 180.864 282.435" stroke="#E9E990" stroke-miterlimit="10"/>
<path d="M168.947 282.895C164.812 286.469 163.6 288.627 164.06 289.98C165.055 290.835 167.198 290.261 169.699 287.286" stroke="#E9E990" stroke-miterlimit="10"/>
<path d="M165.208 290.554C164.277 293.286 165.106 294.524 166.267 294.626C166.701 294.779 167.339 294.537 167.76 293.401C168.615 291.69 171.001 288.422 172.749 286.367" stroke="#E9E990" stroke-miterlimit="10"/>
<path d="M177.649 287.273C175.875 288.409 174.599 291.409 173.323 291.971C171.882 292.035 171.103 291.563 171.461 290.12C171.461 290.12 172.201 287.809 174.893 285.052" stroke="#E9E990" stroke-miterlimit="10"/>
<path d="M174.319 277.023C170.976 279.142 169.661 279.486 167.339 280.725C166.025 281.516 165.349 284.708 165.744 286.022" stroke="#E9E990" stroke-miterlimit="10"/>
<path d="M164.634 273.321C160.359 274.176 157.795 273.703 154.388 273.882C152.104 274.597 151.53 278.733 151.249 280.865C151.53 283.852 152.589 285.358 153.24 286.992C155.243 287.21 155.753 285.384 154.949 281.72L156.379 278.593L158.599 278.529" stroke="#E9E990" stroke-miterlimit="10"/>
<path d="M154.044 274.023C153.176 273.806 152.219 274.342 151.683 275.593C150.969 277.405 150.688 278.873 149.54 281.005C149.54 281.005 148.978 282.895 151.466 282.307" stroke="#E9E990" stroke-miterlimit="10"/>
<path d="M155.817 279.818C158.369 280.865 158.854 281.823 160.423 283.163" stroke="#E9E990" stroke-miterlimit="10"/>
<path d="M151.683 304.647L131.753 255.372C131.179 254.236 130.745 253.662 129.329 253.087L96.2947 240.411C93.9598 239.568 93.4749 240.487 94.5977 242.977L112.678 286.418C114.234 289.839 114.949 290.695 117.373 292.124L150.688 308.783C152.678 309.358 152.959 307.788 151.683 304.647Z" stroke="#E9E990" stroke-miterlimit="10"/>
<path d="M207.71 301.06L153.814 308.924L154.529 306.218L204.89 299.184" stroke="#E9E990" stroke-miterlimit="10"/>
<path d="M143.096 283.418L149.884 282.103M155.269 281.069L157.463 280.635" stroke="#E9E990" stroke-miterlimit="10"/>
<path d="M149.795 300.001L154.809 303.23L178.019 299.809L166.561 294.69M165.144 294.052L147.128 285.997L144.41 286.673" stroke="#E9E990" stroke-miterlimit="10"/>
<path d="M239.187 317.004L206.204 320.324C206.204 320.324 186.835 323.17 174.88 323.451L240.221 313.341M267.679 312.677L281.65 312.345L270.269 313.89" stroke="#E9E990" stroke-miterlimit="10"/>
<path d="M174.88 323.451C185.649 324.319 196.469 323.668 207.34 321.741L233.624 317.566" stroke="#E9E990" stroke-miterlimit="10"/>
<path d="M234.402 279.933C234.402 279.933 232.258 283.431 233.815 284.861L232.718 287.018" stroke="#E9E990" stroke-miterlimit="10"/>
<path d="M292.062 255.066L305.434 260.504" stroke="#E9E990" stroke-miterlimit="10"/>
<path d="M225.42 178.74C223.735 179.047 221.579 180.17 220.584 178.74C220.724 168.209 252.023 160.192 258.16 171.183" stroke="#E9E990" stroke-miterlimit="10"/>
<path d="M242.364 177.029C242.364 177.029 252.75 168.068 260.865 172.051" stroke="#E9E990" stroke-miterlimit="10"/>
<path d="M264.144 179.889C268.84 188.289 264.374 204.935 258.875 206.237C258.875 206.237 257.025 205.382 256.884 202.676" stroke="#E9E990" stroke-miterlimit="10"/>
<path d="M234.249 182.595C234.249 182.595 240.22 189.425 251.615 183.017" stroke="#E9E990" stroke-miterlimit="10"/>
<path d="M252.61 192.846C250.096 193.65 247.2 200.11 245.069 195.272C245.069 189.144 241.688 188.787 239.991 185.544" stroke="#E9E990" stroke-miterlimit="10"/>
<path d="M258.875 188.57C258.875 188.57 266.339 181.23 263.634 177.604C263.302 177.157 262.817 176.774 262.154 176.468" stroke="#E9E990" stroke-miterlimit="10"/>
<path d="M263.889 178.025C265.854 177.183 263.71 170.915 260.865 172.051C260.15 173.047 262.269 174.617 262.626 176.71" stroke="#E9E990" stroke-miterlimit="10"/>
<path d="M264.106 174.119C273.191 177.489 271.864 199.114 277.248 216.539C279.825 226.343 285.784 227.033 288.629 234.437C285.21 229.879 278.805 225.743 274.39 222.322" stroke="#E9E990" stroke-miterlimit="10"/>
<path d="M269.121 201.82C269.784 210.463 274.964 220.19 271.124 227.735C276.534 222.041 271.724 202.471 272.03 189.833" stroke="#E9E990" stroke-miterlimit="10"/>
<path d="M264.336 221.799C263.813 223.037 263.481 224.25 263.302 225.411M263.251 228.347C263.813 233.39 267.947 237.104 274.377 237.794" stroke="#E9E990" stroke-miterlimit="10"/>
<path d="M274.377 237.794C266.849 235.202 265.637 227.888 271.634 222.462" stroke="#E9E990" stroke-miterlimit="10"/>
<path d="M266.045 200.939C266.262 208.203 268.776 215.352 266.568 220.713C263.379 227.428 252.967 232.317 261.733 238.93" stroke="#E9E990" stroke-miterlimit="10"/>
<path d="M270.715 209.99C271.085 214.433 270.907 219.577 268.278 223.216C264.029 229.305 254.039 233.313 261.401 238.649" stroke="#E9E990" stroke-miterlimit="10"/>
<path d="M259.64 205.944C259.64 205.944 259.168 222.067 262.792 225.973" stroke="#E9E990" stroke-miterlimit="10"/>
<path d="M164.94 258.423C161.789 256.368 151.964 254.938 149.54 255.091C144.321 256.598 142.892 258.793 144.13 261.5" stroke="#E9E990" stroke-miterlimit="10"/>
<path d="M147.128 259.648L144.13 261.499C144.13 261.499 143.428 263.912 144.985 264.206L147.689 263.631" stroke="#E9E990" stroke-miterlimit="10"/>
<path d="M163.588 270.665C159.683 270.551 150.394 272.184 149.259 268.329C147.179 268.368 145.278 268.304 144.704 267.614C143.709 266.338 144.742 265.342 147.052 263.772" stroke="#E9E990" stroke-miterlimit="10"/>
<path d="M156.685 255.883L152.104 251.53C150.152 250.024 149.259 249.819 147.83 250.675C145.967 252.13 146.975 254.798 150.829 253.24" stroke="#E9E990" stroke-miterlimit="10"/>
<path d="M143.976 262.393C134.726 254.542 123.778 249.104 116.225 238.853C116.225 237.858 117.373 237.564 118.075 237.858C121.558 239.326 125.82 240.475 131.179 241.266L140.289 241.84L146.86 252.117M147.804 253.585L148.889 255.283" stroke="#E9E990" stroke-miterlimit="10"/>
<path d="M339.769 236.683L336.885 239.708C334.397 238.164 331.718 237.334 328.771 237.564C331.424 234.258 331.616 227.173 336.732 227.632" stroke="#E9E990" stroke-miterlimit="10"/>
<path d="M337.817 218.977C337.817 218.977 334.423 225.105 334.512 227.99" stroke="#E9E990" stroke-miterlimit="10"/>
<path d="M338.621 220.343C338.621 220.343 336.617 224.454 338.174 226.241" stroke="#E9E990" stroke-miterlimit="10"/>
<path d="M220.584 178.74C218.159 184.446 219.155 188.046 218.44 192.706C220.01 195.412 219.869 197.403 221.605 200.697" stroke="#E9E990" stroke-miterlimit="10"/>
<path d="M252.61 192.846C256.655 191.136 258.594 194.838 257.025 198.974C254.396 205.024 252.138 206.339 250.045 205.522" stroke="#E9E990" stroke-miterlimit="10"/>
<path d="M45.6528 89.7256C39.9621 94.1425 52.7725 100.13 57.1873 104.253L51.7773 112.231C48.4981 106.397 43.6623 103.117 41.0977 96.1339L44.7085 90.6958" stroke="#E9E990" stroke-miterlimit="10"/>
<path d="M41.0978 96.134C33.1742 100.551 21.4483 103.551 17.327 109.385C10.9473 124.793 7.96162 140.673 6.7878 156.809C6.50709 163.792 8.8421 166.881 16.6126 167.353C26.0417 169.243 35.3689 168.004 44.6321 164.941C45.066 164.8 46.4184 164.251 46.8523 164.098" stroke="#E9E990" stroke-miterlimit="10"/>
<path d="M66.2976 99.9893C76.1224 104.547 82.9486 106.398 85.3729 113.521C87.5675 124.014 93.3475 144.273 90.9232 147.273" stroke="#E9E990" stroke-miterlimit="10"/>
<path d="M42.9224 149.903C42.3865 149.788 40.6257 149.482 40.1408 149.405C29.104 147.694 31.8089 155.698 27.7131 162.656" stroke="#E9E990" stroke-miterlimit="10"/>
<path d="M30.163 150.618C30.7116 136.729 25.8631 124.486 21.8822 111.376C21.8822 111.376 21.0274 110.24 19.1772 109.806" stroke="#E9E990" stroke-miterlimit="10"/>
<path d="M32.0131 151.549C25.8886 148.116 20.938 148.933 16.6125 151.971" stroke="#E9E990" stroke-miterlimit="10"/>
<path d="M16.3315 135.733C18.0413 144.133 25.161 144.133 27.3046 149.66" stroke="#E9E990" stroke-miterlimit="10"/>
<path d="M25.3527 149.354C25.3527 149.354 20.8869 146.98 14.7625 149.124" stroke="#E9E990" stroke-miterlimit="10"/>
<path d="M50.5014 147.835C46.5077 151.83 52.1984 161.8 55.1969 161.8C52.6322 163.077 48.8937 164.034 47.6433 164.226C44.3769 164.507 40.8298 154.715 42.093 150.541C42.9479 149.264 48.0644 148.473 50.5014 147.835Z" stroke="#E9E990" stroke-miterlimit="10"/>
<path d="M48.2174 159.094C48.9319 159.094 49.4933 159.668 49.4933 160.37C49.4933 161.085 48.9319 161.66 48.2174 161.66C47.5156 161.66 46.9414 161.085 46.9414 160.37C46.9415 159.668 47.5156 159.094 48.2174 159.094Z" stroke="#E9E990" stroke-miterlimit="10"/>
<path d="M104.448 154.958C104.205 154.779 103.963 154.588 103.746 154.409M102.355 153.132C100.888 151.703 99.51 150.273 96.3329 148.983C91.3568 148.269 90.1829 150.605 87.6566 153.247C85.1302 155.89 86.2275 160.37 88.0776 161.941C88.9835 162.86 90.0808 163.268 90.8974 163.932C92.2754 165.068 93.6023 165.464 94.8656 165.119" stroke="#E9E990" stroke-miterlimit="10"/>
<path d="M102.037 159.949C100.429 158.175 98.6681 156.554 97.1753 154.652M95.7335 153.975C94.6489 154.09 94.1003 155.137 94.7765 156.771C96.0524 158.66 97.9025 160.307 99.4719 162.081C100.633 162.707 101.769 162.26 102.879 160.805C102.879 160.805 103.172 159.656 102.738 158.954" stroke="#E9E990" stroke-miterlimit="10"/>
<path d="M99.7524 162.222C98.3106 163.83 96.9199 164.277 95.6184 162.936C94.0617 161.226 93.2451 159.145 92.0713 157.243C92.0713 157.243 92.3392 154.881 94.5466 156.069" stroke="#E9E990" stroke-miterlimit="10"/>
<path d="M97.2644 163.817C96.0012 165.222 94.8018 165.617 93.6662 164.443C92.3009 162.962 91.5992 161.137 90.5657 159.49C90.5657 159.49 90.8081 157.435 92.7348 158.469" stroke="#E9E990" stroke-miterlimit="10"/>
<path d="M98.1831 150.975C98.9997 151.639 99.7525 152.545 100.607 152.967C101.603 152.826 102.7 153.349 103.733 153.541C104.014 154.613 103.325 155.8 101.284 155.839C98.7956 155.839 96.7669 154.728 94.9167 152.967" stroke="#E9E990" stroke-miterlimit="10"/>
<path d="M100.914 158.749L118.254 158.098L117.692 154.677L103.619 155.035" stroke="#E9E990" stroke-miterlimit="10"/>
<path d="M103.363 158.66C104.882 159.655 106.298 162.081 107.446 160.804C107.446 160.804 107.842 159.49 107.357 158.507" stroke="#E9E990" stroke-miterlimit="10"/>
<path d="M62.8908 100.283L57.9019 104.253C61.1427 106.334 63.1204 109.321 64.4474 112.806C64.4474 112.806 65.4299 102.938 64.8557 100.372" stroke="#E9E990" stroke-miterlimit="10"/>
<path d="M53.5891 109.551L56.0516 111.236H61.3213L62.5334 108.938" stroke="#E9E990" stroke-miterlimit="10"/>
<path d="M58.0676 104.368L57.1873 104.253" stroke="#E9E990" stroke-miterlimit="10"/>
<path d="M50.5012 147.835C52.3513 147.413 53.1552 144.133 54.4821 142.282C55.6177 141.426 56.3322 141.426 57.7613 140.431C58.1186 138.49 58.3865 137.329 59.4583 137.163C62.1633 137.584 61.1681 142.141 59.0372 143.852V145.128C60.747 146.418 64.9193 147.694 67.8667 148.984C70.8268 150.03 74.1316 151.396 74.4123 152.252C74.6675 153.554 74.004 154.128 72.4219 153.962C69.2448 153.234 65.5829 152.966 61.6019 150.835" stroke="#E9E990" stroke-miterlimit="10"/>
<path d="M54.125 161.456L65.7233 162.796C71.5287 163.907 75.0376 164.009 75.548 162.796" stroke="#E9E990" stroke-miterlimit="10"/>
<path d="M69.985 153.477C73.6597 154.843 76.9771 155.813 77.832 157.524C77.934 158.788 77.2578 159.247 76.1222 159.234C71.4267 158.66 65.3023 156.388 61.1682 156.107" stroke="#E9E990" stroke-miterlimit="10"/>
<path d="M75.9052 159.247C76.8622 159.758 77.5639 160.307 77.8957 160.97C77.9978 162.234 77.3216 162.694 76.1859 162.681C71.9754 162.17 66.6292 160.294 62.5972 159.707" stroke="#E9E990" stroke-miterlimit="10"/>
<path d="M83.6628 113.802C82.4379 121.729 87.5034 127.193 79.9625 137.584C76.4026 142.141 81.2512 147.694 79.248 151.831" stroke="#E9E990" stroke-miterlimit="10"/>
<path d="M90.2594 150.503C83.2034 151.55 83.9562 159.809 88.7155 162.503" stroke="#E9E990" stroke-miterlimit="10"/>
<path d="M80.5369 162.656C80.5369 162.656 84.0968 168.63 90.6423 168.489C92.5052 167.813 93.3346 166.638 93.6153 165.221" stroke="#E9E990" stroke-miterlimit="10"/>
<path d="M90.8974 163.932L86.8016 163.792C86.8016 163.792 87.1461 165.719 85.615 167.315" stroke="#E9E990" stroke-miterlimit="10"/>
<path d="M92.2884 149.239C92.2884 149.239 91.2166 148.69 90.9231 147.273C90.6424 145.843 84.2372 146.979 82.8081 148.409" stroke="#E9E990" stroke-miterlimit="10"/>
<path d="M87.2229 143.137C87.2229 143.137 80.9198 146.239 79.7332 148.818" stroke="#E9E990" stroke-miterlimit="10"/>
<path d="M82.8973 165.426C83.5225 167.851 83.0887 170.685 81.8127 173.902C78.9164 176.698 73.0215 178.395 65.9784 179.2M53.1425 179.749C45.9207 179.608 38.5968 178.791 32.702 177.464L26.8583 176.468C26.8583 176.468 23.8471 174.655 24.434 168.234" stroke="#E9E990" stroke-miterlimit="10"/>
<path d="M56.0516 111.236C54.1504 116.801 52.581 126.337 51.892 146.826M51.6114 163.102L51.3562 178.038L58.897 186.157L66.1189 179.187L65.3405 162.758M64.6386 147.669L63.3117 119.495C62.5971 114.516 60.8874 114.363 61.3213 111.236" stroke="#E9E990" stroke-miterlimit="10"/>
<path d="M79.312 151.333C79.312 151.333 81.4173 161.749 79.9628 168.924" stroke="#E9E990" stroke-miterlimit="10"/>
<path d="M56.3071 183.374L56.2688 186.591L65.3025 186.438V185.161" stroke="#E9E990" stroke-miterlimit="10"/>
<path d="M64.5111 180.732C70.559 180.502 77.5384 178.459 82.3869 175.332C82.808 176.047 83.1014 177.745 82.9483 178.753C80.7664 180.17 78.5591 181.306 76.3134 182.212M74.9355 182.723C70.0231 184.472 64.996 185.136 59.8794 185.2" stroke="#E9E990" stroke-miterlimit="10"/>
<path d="M56.4984 185.378C54.1762 185.161 52.7217 184.957 50.5525 184.6M49.1872 184.37C41.5316 183.017 34.7947 180.885 28.7212 178.179L28.9508 176.825" stroke="#E9E990" stroke-miterlimit="10"/>
<path d="M42.8713 179.098C42.8713 179.098 50.5269 180.706 53.7806 180.655" stroke="#E9E990" stroke-miterlimit="10"/>
<path d="M64.0263 215.071C59.7009 229.879 54.7885 242.581 50.948 260.81" stroke="#E9E990" stroke-miterlimit="10"/>
<path d="M25.646 243.002L26.3223 262.47" stroke="#E9E990" stroke-miterlimit="10"/>
<path d="M66.2975 259.776C66.2975 259.776 60.2751 234.832 59.6499 228.935" stroke="#E9E990" stroke-miterlimit="10"/>
<path d="M85.0919 186.016C85.0919 186.016 86.0871 195.693 74.272 198.833" stroke="#E9E990" stroke-miterlimit="10"/>
<path d="M78.9676 183.591C78.9676 183.591 74.7315 187.242 69.8064 188.978" stroke="#E9E990" stroke-miterlimit="10"/>
<path d="M53.0532 188.289C53.0532 188.289 61.9975 190.127 64.8557 189.987" stroke="#E9E990" stroke-miterlimit="10"/>
<path d="M73.2767 66.0837C75.8796 69.9134 74.693 74.6366 75.1268 78.7599C75.1268 78.7599 74.272 79.8961 73.5574 80.0493C74.693 84.8875 70.8907 91.6022 67.433 98.6998C65.7232 100.985 63.5923 100.691 60.4664 99.5552C50.5013 94.2829 49.6464 91.5767 48.7915 83.8918" stroke="#E9E990" stroke-miterlimit="10"/>
<path d="M46.5075 82.7559C46.6096 87.0579 46.1757 90.8365 44.4788 93.3768" stroke="#E9E990" stroke-miterlimit="10"/>
<path d="M68.288 80.1897C68.0073 82.7556 69.0026 85.0279 69.0026 88.1682C68.3008 88.5639 67.1525 88.8703 66.2976 88.4491" stroke="#E9E990" stroke-miterlimit="10"/>
<path d="M45.3594 72.3132C45.5636 63.4666 48.0388 57.4541 54.2016 56.6881C61.9848 51.8755 68.9642 55.5775 75.4077 64.807C75.6884 67.0792 75.1143 69.2494 74.9739 71.4707" stroke="#E9E990" stroke-miterlimit="10"/>
<path d="M73.277 66.084C69.9212 70.0158 65.4427 69.135 60.4665 66.084C57.9274 64.7819 56.6387 65.5733 55.7583 67.0796C56.8556 68.152 57.5447 69.3775 57.7616 70.7816C56.945 72.6838 55.299 73.5773 53.2065 73.922C52.7727 77.3305 52.1219 79.3602 51.2033 79.7559C50.7312 77.5219 48.3707 74.305 46.5078 72.4922" stroke="#E9E990" stroke-miterlimit="10"/>
<path d="M46.5079 72.4922C43.2415 71.356 42.8076 75.6326 45.2319 80.1899C45.2319 80.1899 46.5079 84.1728 48.7918 83.8919" stroke="#E9E990" stroke-miterlimit="10"/>
<path d="M75.0375 72.9644L77.8318 73.0665C77.0152 76.9983 76.7472 81.9897 77.6915 86.3043L74.272 86.164C74.0806 85.5767 73.9019 84.4533 73.7361 82.6661" stroke="#E9E990" stroke-miterlimit="10"/>
<path d="M167.658 71.6368C167.939 75.9516 167.734 80.3429 167.377 84.7471H163.524C163.817 80.4195 163.856 76.0537 163.524 71.6368C163.524 71.6368 165.527 70.9219 167.658 71.6368Z" stroke="#E9E990" stroke-miterlimit="10"/>
<path d="M77.6917 73.4879L163.575 72.3645" stroke="#E9E990" stroke-miterlimit="10"/>
<path d="M163.588 83.9172L77.5769 85.7555" stroke="#E9E990" stroke-miterlimit="10"/>
<path d="M83.7139 85.6281C100.173 75.2624 133.348 73.3476 157.386 84.0579" stroke="#E9E990" stroke-miterlimit="10"/>
<path d="M166.395 84.7471L164.379 213.067" stroke="#E9E990" stroke-miterlimit="10"/>
<path d="M162.529 212.646L164.136 84.7471" stroke="#E9E990" stroke-miterlimit="10"/>
<path d="M75.3695 86.2151L75.344 104.061" stroke="#E9E990" stroke-miterlimit="10"/>
<path d="M77.2577 105.032L77.1812 86.292" stroke="#E9E990" stroke-miterlimit="10"/>
<path d="M90.6167 218.543L164.672 218.773L164.379 213.067C139.766 209.122 114.974 207.731 89.7874 211.879" stroke="#E9E990" stroke-miterlimit="10"/>
<path d="M105.979 218.594L107.447 212.071L126.943 211.79L129.061 218.658" stroke="#E9E990" stroke-miterlimit="10"/>
<path d="M159.211 218.748L162.414 243.526" stroke="#E9E990" stroke-miterlimit="10"/>
<path d="M159.977 239.709L157.246 218.748" stroke="#E9E990" stroke-miterlimit="10"/>
<path d="M42.9732 100.091C35.6621 103.602 24.4466 105.542 21.0398 110.623" stroke="#E9E990" stroke-miterlimit="10"/>
<path d="M83.4588 109.882C78.2912 105.606 71.2864 103.972 64.9705 101.087" stroke="#E9E990" stroke-miterlimit="10"/>
<path d="M319.341 369.599L260.584 333.817M229.094 314.643L222.37 310.558M162.006 273.793L157.31 270.933M143.607 262.585L131.753 255.372M100.556 257.478L-0.548828 264.193" stroke="#E9E990" stroke-miterlimit="10"/>
<path d="M81.9534 175.6L81.813 173.902" stroke="#E9E990" stroke-miterlimit="10"/>
</svg>
