<svg width="296" height="272" viewBox="0 0 296 272" fill="none" xmlns="http://www.w3.org/2000/svg">
<path d="M321.006 282.149C320.864 282.138 320.83 282.136 320.667 281.543L320.645 281.464C318.864 275.035 317.508 270.073 316.248 265.375C315.624 263.046 315.022 260.664 314.44 258.361C313.799 255.823 313.136 253.2 312.438 250.626L312.158 249.591C310.779 244.509 309.4 239.427 308.019 234.348C306.565 229.001 304.788 222.685 302.639 216.392C301.591 213.323 300.286 209.503 296.257 207.64C294.235 206.705 291.952 206.105 289.074 205.752C284.246 205.159 279.89 204.692 275.461 204.97L274.852 205.008C271.659 205.206 268.357 205.411 265.142 206.457C261.713 207.573 259.697 209.813 258.98 213.306C257.999 218.081 257.679 223.013 257.455 227.261C257.285 230.507 257.1 233.751 256.916 236.996C256.725 240.36 256.528 243.838 256.349 247.261C256.288 248.439 256.267 249.632 256.247 250.785C256.233 251.609 256.219 252.433 256.19 253.257C256.026 257.942 255.948 262.706 255.872 267.312C255.842 269.11 255.812 270.908 255.778 272.706C255.769 273.177 256.144 273.567 256.616 273.577C256.621 273.577 256.627 273.577 256.633 273.577C257.097 273.577 257.478 273.205 257.487 272.738C257.521 270.939 257.551 269.14 257.581 267.341C257.657 262.742 257.735 257.986 257.898 253.316C257.927 252.482 257.942 251.648 257.956 250.815C257.976 249.676 257.996 248.498 258.056 247.349C258.235 243.931 258.432 240.455 258.623 237.093C258.807 233.846 258.992 230.599 259.163 227.351C259.383 223.165 259.698 218.309 260.654 213.65C261.245 210.773 262.839 209.004 265.671 208.083C268.68 207.104 271.729 206.915 274.958 206.715L275.569 206.677C279.85 206.406 284.124 206.867 288.865 207.449C291.563 207.78 293.683 208.334 295.539 209.192C298.657 210.634 299.822 213.434 301.021 216.945C303.155 223.193 304.922 229.475 306.369 234.797C307.751 239.875 309.129 244.957 310.508 250.039L310.789 251.074C311.483 253.633 312.144 256.249 312.783 258.779C313.366 261.089 313.97 263.477 314.597 265.818C315.858 270.521 317.215 275.487 318.998 281.921L319.019 281.996C319.187 282.61 319.5 283.751 320.879 283.854C320.901 283.856 320.922 283.856 320.944 283.856C321.387 283.856 321.762 283.514 321.795 283.065C321.83 282.594 321.477 282.184 321.006 282.149Z" fill="#E9E990"/>
<path d="M323.738 121.806C323.575 121.669 323.377 121.606 323.179 121.608C321.798 120.276 320.028 120.064 318.454 119.876C318.257 119.852 318.061 119.828 317.869 119.803C312.62 119.109 308.051 120.405 304.285 123.655C301.525 126.038 300.077 128.93 299.859 132.496C299.847 132.689 299.839 132.885 299.831 133.083C299.799 133.892 299.763 134.663 299.44 135.304C299.232 134.886 299.051 134.479 298.964 134.061C298.754 133.048 298.477 132.046 298.209 131.076C297.889 129.919 297.586 128.825 297.385 127.71C297.262 127.027 297.036 126.379 296.817 125.753C296.41 124.585 296.058 123.576 296.369 122.524C296.63 121.645 296.604 120.695 296.291 119.617C295.5 116.892 294.817 114.081 294.156 111.362C293.575 108.971 292.973 106.499 292.299 104.08C290.139 96.3383 287.653 88.1712 283.153 80.895C280.296 76.2749 276.805 71.0383 271.515 67.3691C271.358 67.2599 271.203 67.1438 271.049 67.0277C270.273 66.4447 269.321 65.7301 267.99 65.8781C267.749 65.4417 267.418 65.0637 267.015 64.7473C267.996 62.9223 268.773 60.7466 267.517 58.3196C267.507 58.2986 267.498 58.2614 267.495 58.2329C267.816 57.9362 267.859 57.4437 267.595 57.0934C267.859 56.0754 267.807 55.2175 267.543 54.4823C269.334 52.0735 270.097 49.4033 269.868 46.3257C269.613 42.8889 268.966 39.9324 267.89 37.2875C265.839 32.2444 262.495 26.2084 254.778 24.278C250.444 23.1939 246.22 23.0912 241.863 23.9645C237.649 24.8087 233.943 26.3488 230.534 28.6723C227.586 30.6821 225.667 33.1737 224.829 36.0781C223.962 39.0844 224.127 42.3038 225.333 45.9206C225.473 46.3403 225.632 46.7555 225.786 47.157C226.261 48.3976 226.71 49.5692 226.595 50.7961C226.462 52.2108 226.282 53.7123 225.866 55.109C225.231 57.2404 225.477 59.1808 226.664 61.4C227.866 63.6488 228.931 66.0372 229.961 68.3469C230.363 69.2481 230.765 70.1495 231.175 71.0458C232.107 73.0799 233.268 75.6115 236.412 76.4047C238.176 76.8491 239.651 76.3139 240.895 75.7766C242.647 75.0207 244.069 74.8808 245.122 75.3607C246.172 75.8394 246.996 76.9978 247.571 78.8039C248.53 81.819 247.918 84.4141 245.75 86.5168C245.345 86.9095 244.916 87.2761 244.418 87.7001C244.173 87.9091 243.917 88.1275 243.647 88.3632C243.449 88.5368 243.341 88.7926 243.356 89.0561C243.372 89.3195 243.508 89.561 243.725 89.7108C244.282 90.0941 244.71 91.2755 245.088 92.3179C245.4 93.1795 245.698 93.9947 246.119 94.5994C246.394 95.6377 245.969 96.649 245.512 97.7171C245.444 97.8756 245.377 98.032 245.314 98.1861C242.017 106.194 239.951 114.964 238.999 124.998C238.594 129.277 238.896 133.583 239.9 137.797C240.002 138.227 240.069 138.633 240.118 139.026C240.097 139.033 240.077 139.036 240.056 139.044C239.604 139.221 239.155 139.406 238.705 139.592C237.715 140 236.781 140.386 235.809 140.687C232.994 141.56 229.881 142.088 226.292 142.303L226.134 142.312C223.096 142.494 220.226 142.667 218.458 139.778C217.96 138.964 217.146 138.672 216.491 138.438C216.218 138.34 215.96 138.248 215.758 138.132C214.998 137.698 214.217 137.702 213.523 137.704C212.804 137.703 212.369 137.69 212.022 137.387C212.495 136.988 212.968 136.591 213.439 136.19C213.798 135.884 214.217 135.731 214.777 135.583C217.96 134.742 219.83 132.361 221.639 130.058L221.77 129.891C222.034 129.556 222.09 129.166 222.131 128.881C222.142 128.808 222.151 128.735 222.167 128.667C222.246 128.349 222.136 128.014 221.884 127.804C220.569 126.711 219.127 126.762 217.597 127.955C216.177 129.061 214.905 130.245 213.71 131.572C213.523 131.779 212.512 132.651 211.442 133.573C210.91 134.033 210.415 134.461 209.949 134.867C207.914 134.12 205.732 134.136 203.448 134.922C202.313 135.313 201.423 136.245 200.941 137.546C200.608 138.446 200.511 139.451 200.623 140.418C198.292 139.232 195.389 138.198 192.558 137.191C189.927 136.255 187.442 135.371 185.609 134.437C185.401 134.331 185.159 134.315 184.939 134.391C184.718 134.468 184.539 134.632 184.443 134.844L182.757 138.551C182.755 138.556 182.754 138.561 182.752 138.565C182.74 138.594 182.731 138.625 182.722 138.656C182.714 138.68 182.705 138.704 182.7 138.729C182.695 138.753 182.693 138.779 182.69 138.804C182.687 138.836 182.682 138.868 182.682 138.899C182.682 138.904 182.68 138.909 182.68 138.914C182.681 138.934 182.685 138.953 182.687 138.973C182.689 139.004 182.691 139.035 182.697 139.065C182.702 139.094 182.711 139.12 182.719 139.148C182.727 139.173 182.733 139.198 182.743 139.222C182.754 139.25 182.768 139.276 182.782 139.302C182.794 139.324 182.805 139.347 182.819 139.369C182.834 139.393 182.852 139.415 182.87 139.437C182.887 139.458 182.903 139.478 182.921 139.498C182.942 139.519 182.964 139.537 182.987 139.556C183.006 139.573 183.025 139.59 183.046 139.604C183.075 139.624 183.106 139.641 183.137 139.657C183.152 139.665 183.166 139.676 183.181 139.683C183.185 139.685 183.188 139.685 183.191 139.687C183.222 139.7 183.254 139.709 183.286 139.719C183.309 139.726 183.332 139.735 183.356 139.74C183.376 139.745 183.396 139.745 183.416 139.748C183.453 139.753 183.49 139.759 183.528 139.759C183.53 139.759 183.532 139.76 183.535 139.76C183.552 139.761 183.569 139.76 183.585 139.76C183.866 139.76 183.959 139.79 183.958 139.785C183.985 139.809 184.006 139.837 184.031 139.865C184.287 140.153 184.597 140.454 185.322 140.685C186.65 141.109 187.995 141.605 189.296 142.084C191.737 142.984 194.261 143.914 196.856 144.445C197.442 144.566 197.987 144.875 198.563 145.202C198.619 145.234 198.676 145.266 198.732 145.298C198.171 145.899 197.91 146.573 197.998 147.232C198.097 147.968 198.613 148.592 199.451 148.988C202.098 150.24 204.013 152.295 206.041 154.471C207.005 155.506 208.002 156.576 209.08 157.546C210.105 158.468 211.222 159.139 212.302 159.789C212.457 159.883 212.604 159.973 212.755 160.065C211.966 160.23 211.183 160.41 210.409 160.588C209.635 160.766 208.834 160.95 208.05 161.114C203.108 162.147 198.859 164.92 195.004 167.763C188.135 172.828 181.61 178.856 175.057 186.192C174.902 186.365 174.825 186.593 174.842 186.825C174.859 187.056 174.969 187.27 175.147 187.419C175.878 188.027 176.607 188.618 177.33 189.204C178.906 190.482 180.396 191.689 181.817 193.002C187.579 198.328 193.667 204.035 199.198 210.1C202.296 213.498 206.075 217.346 210.608 220.123C214.885 222.744 219.629 224.069 224.728 224.069C224.849 224.069 224.972 224.064 225.093 224.062C225.04 224.934 224.984 225.811 224.917 226.679C224.893 227.001 224.871 227.816 224.841 228.944C224.766 231.718 224.54 240.156 223.965 241.183C223.96 241.19 223.957 241.198 223.952 241.205C223.933 241.232 223.917 241.26 223.901 241.289C223.889 241.312 223.877 241.334 223.867 241.357C223.856 241.382 223.847 241.408 223.839 241.434C223.83 241.464 223.821 241.492 223.815 241.522C223.813 241.532 223.809 241.54 223.807 241.55C223.475 243.485 223.555 245.415 223.632 247.281L223.65 247.711C223.769 250.674 223.073 253.451 222.337 256.392C222.024 257.643 221.7 258.937 221.448 260.234C221.3 261.003 221.226 261.007 220.323 261.051C218.513 261.14 216.768 260.813 214.921 260.467C214.238 260.34 213.533 260.207 212.829 260.1C212.372 260.029 211.901 259.94 211.447 259.854C211.444 259.854 211.441 259.853 211.438 259.852C211.474 259.42 211.5 258.984 211.513 258.544C211.774 250.001 210.364 241.469 207.324 233.183C205.546 228.338 203.008 223.914 200.116 219.047C198.586 216.472 197.291 213.715 196.04 211.049C195.568 210.045 195.097 209.041 194.612 208.044C194.194 207.182 193.757 206.335 193.014 205.451C192.712 205.092 192.177 205.043 191.815 205.342C190.467 206.455 190.537 207.868 190.589 208.899C190.603 209.184 190.616 209.453 190.6 209.68C190.099 216.462 189.535 223.69 188.631 230.934L188.426 232.595C187.82 237.512 187.193 242.598 185.951 247.484C185.739 248.319 185.584 249.172 185.434 249.998C185.261 250.953 185.082 251.941 184.816 252.877C184.631 253.526 184.79 253.987 184.956 254.259C185.389 254.972 186.268 255.15 186.91 255.28C191.114 256.132 194.486 256.895 197.523 257.685C198.394 257.911 199.268 258.148 200.142 258.388C199.663 259.655 200.089 260.882 200.41 261.805C200.45 261.918 200.489 262.03 200.526 262.139C202.617 268.389 200.702 273.91 195.271 277.286C193.015 278.688 190.449 279.818 187.194 280.843C186.723 280.991 186.429 281.233 186.193 281.427C186.135 281.474 186.078 281.522 186.017 281.567C185.817 281.716 185.703 281.934 185.679 282.164C184.961 282.094 184.276 282.316 183.747 282.812C182.921 283.587 182.584 284.877 182.868 286.178C183.43 288.754 185.427 289.459 187.307 289.809C190.991 290.495 194.757 290.571 198.299 290.591C198.327 290.591 198.355 290.592 198.383 290.592C199.448 290.592 200.505 290.478 201.529 290.368C203.505 290.156 205.372 289.956 207.219 290.527C207.611 290.648 207.984 290.553 208.257 290.482C208.319 290.467 208.379 290.448 208.411 290.443C210.719 290.414 213.007 290.109 215.219 289.813C215.601 289.763 215.982 289.712 216.364 289.662C216.778 289.608 217.192 289.556 217.606 289.503C220.306 289.16 223.098 288.805 225.807 288.106C227.53 287.661 228.9 286.859 229.995 285.655C232.096 283.343 231.754 280.689 231.223 278.168C230.871 276.496 230.287 274.877 229.722 273.311C229.358 272.303 228.982 271.261 228.679 270.233C227.437 266.01 226.626 261.484 226.199 256.396C226.177 256.139 226.193 255.842 226.209 255.527C226.259 254.584 226.327 253.291 225.246 252.285C225.181 252.224 225.107 252.18 225.031 252.143C225.276 250.678 225.42 249.181 225.358 247.643L225.34 247.21C225.269 245.478 225.197 243.688 225.472 241.973C226.045 240.803 226.326 237.331 226.55 228.991C226.578 227.928 226.601 227.089 226.622 226.81C226.694 225.87 226.754 224.924 226.811 223.986C231.942 223.438 237.062 221.439 242.866 217.716C245.222 216.204 247.533 214.554 249.769 212.959C251.192 211.943 252.664 210.892 254.129 209.891C258.731 206.746 263.988 204.835 270.2 204.051C273.133 203.681 276.155 203.58 279.077 203.482C282.74 203.359 286.526 203.232 290.249 202.581C295.477 201.667 299.033 199.242 301.121 195.167C304.061 189.429 305.298 183.127 306.495 177.032L306.759 175.689C306.975 174.594 307.19 173.497 307.404 172.4C308.56 166.482 309.755 160.362 311.369 154.476C313.262 147.569 315.578 139.58 319.111 132.178C319.538 131.283 319.928 130.361 320.306 129.469C321.301 127.119 322.241 124.898 323.838 123.011C324.144 122.65 324.099 122.111 323.738 121.806ZM270.541 68.7739C275.561 72.256 278.933 77.3206 281.7 81.7943C286.082 88.8801 288.525 96.916 290.652 104.54C291.319 106.931 291.917 109.389 292.495 111.766C293.16 114.503 293.848 117.332 294.65 120.094C294.782 120.548 294.836 120.946 294.83 121.315C294.49 120.716 294.327 119.998 294.15 119.212C294.037 118.709 293.92 118.19 293.747 117.684C293.419 116.724 293.096 115.763 292.773 114.802C290.849 109.073 288.859 103.149 285.763 97.7526C282.679 92.3768 278.891 88.7634 274.183 86.7056C270.16 84.9476 265.623 85.0606 261.41 87.0261C257.386 88.9029 254.233 92.2886 253.182 95.8617C252.945 96.6698 252.646 97.4521 252.33 98.2801C252.123 98.8207 251.91 99.3797 251.717 99.9429C251.636 100.178 251.566 100.33 251.514 100.425C251.454 100.376 251.375 100.303 251.276 100.196C249.668 98.4704 249.614 97.9068 250.832 95.5572C252.996 91.3832 256.077 87.524 260.529 83.4123C261.079 82.9041 261.662 82.3966 262.226 81.9057C264.417 79.9988 266.682 78.0269 268.079 75.1894C269.231 72.8482 269.416 70.3017 268.639 67.604C269.067 67.6964 269.47 67.9793 270.022 68.3942C270.194 68.5234 270.366 68.6524 270.541 68.7739ZM265.82 63.3244C265.503 62.02 265.673 60.9369 266.344 60.0048C266.623 61.1087 266.363 62.1749 265.82 63.3244ZM266.041 56.1941C265.665 56.2013 265.314 56.2972 264.997 56.3848C263.214 56.8798 261.897 56.5035 260.851 55.2017C260.678 54.9869 260.423 54.8809 260.167 54.8858C260.89 53.9442 261.996 53.5158 263.169 53.0659C263.388 52.9818 263.606 52.8973 263.823 52.81C263.828 52.8137 263.833 52.8171 263.838 52.8208C265.459 53.9936 266.225 54.8246 266.041 56.1941ZM259.211 53.3836C259.192 53.3688 259.176 53.352 259.155 53.3386C258.92 53.1855 258.889 53.0034 258.892 52.3604C258.893 52.0845 258.895 51.7715 258.836 51.4584C258.822 51.3857 258.805 51.3177 258.789 51.2487C258.878 51.2106 258.959 51.1801 259.024 51.1687C260.102 50.9811 261.038 51.1831 262.023 51.677C261.051 52.0631 260.034 52.5396 259.211 53.3836ZM263.618 58.2957C264.206 58.2957 264.825 58.2069 265.47 58.0277C265.608 57.9894 265.718 57.9605 265.809 57.9398C265.802 57.9828 265.796 58.0253 265.793 58.0684C264.178 59.5637 263.624 61.4401 264.144 63.6611C262.706 63.2439 261.758 61.9419 260.746 60.0156C260.507 59.5598 260.397 59.0186 260.28 58.4457C260.148 57.8004 259.999 57.0845 259.639 56.4081C260.698 57.6541 262.047 58.2957 263.618 58.2957ZM231.498 30.085C234.714 27.893 238.214 26.4391 242.199 25.6406C246.302 24.8182 250.281 24.9149 254.363 25.9365C259.802 27.2971 263.486 30.9965 266.307 37.9316C267.315 40.4089 267.922 43.1962 268.164 46.4523C268.343 48.8667 267.816 50.9872 266.559 52.9091C266.053 52.3524 265.445 51.8735 264.84 51.4358C263.141 50.2061 261.27 49.0427 258.731 49.4846C258.42 49.5387 258.157 49.6554 257.923 49.7636C257.87 49.7243 257.816 49.686 257.759 49.6527C257.637 49.5817 257.484 49.5133 257.302 49.4691C256.687 48.0262 255.328 47.6967 254.311 47.453C254.099 47.4022 253.889 47.3522 253.687 47.2922C252.164 46.8381 250.852 46.6443 249.677 46.6999C247.945 46.7817 246.169 46.7054 244.451 46.6317C242.99 46.5689 241.479 46.5043 239.975 46.5335C237.462 46.5829 235.385 44.7668 234.093 43.2344C233.041 41.9865 231.954 40.6402 231.239 39.1127C230.678 37.916 229.76 37.0767 228.51 36.6183C228.339 36.5558 228.153 36.5492 227.978 36.5998C227.089 36.8569 226.566 37.4925 226.148 38.0167C226.226 37.5206 226.333 37.0325 226.472 36.552C227.196 34.0401 228.887 31.8645 231.498 30.085ZM255.472 49.7579C252.442 50.5756 249.428 50.0289 246.251 49.4504L245.634 49.3399C244.294 49.1033 243.006 48.8749 241.935 48.2523C242.755 48.2716 243.574 48.3051 244.378 48.3397C246.133 48.4149 247.948 48.4925 249.758 48.4075C250.738 48.3616 251.863 48.5324 253.199 48.9307C253.429 48.9994 253.67 49.0574 253.913 49.1156C254.653 49.2928 255.153 49.4346 255.472 49.7579ZM245.527 89.001C246.026 88.5763 246.496 88.1749 246.941 87.7439C249.575 85.1885 250.356 81.918 249.201 78.2857C248.463 75.9677 247.361 74.5021 245.832 73.8051C244.299 73.1066 242.463 73.2376 240.218 74.207C238.927 74.764 237.958 75.0313 236.831 74.7469C234.649 74.1969 233.755 72.5707 232.73 70.3336C232.322 69.4426 231.922 68.5466 231.523 67.6507C230.481 65.3134 229.403 62.8967 228.172 60.5939C227.202 58.7792 227.002 57.2849 227.505 55.597C227.963 54.0589 228.157 52.4574 228.298 50.9557C228.45 49.3309 227.907 47.9147 227.382 46.5452C227.228 46.1433 227.083 45.7637 226.955 45.3797C226.368 43.621 226.054 41.9754 226.004 40.4159C226.668 40.1003 227.086 39.5812 227.454 39.1201C227.746 38.7539 227.962 38.4938 228.215 38.3448C228.891 38.6589 229.364 39.1395 229.691 39.8376C230.494 41.5538 231.66 43.001 232.786 44.3363C234.205 46.0196 236.45 47.9871 239.316 48.2183C239.321 48.2243 239.324 48.2313 239.329 48.2373C240.951 50.2491 243.281 50.6606 245.337 51.0235L245.945 51.1324C249.435 51.768 253.044 52.4251 256.735 51.1611C256.846 51.1225 256.894 51.129 256.898 51.1295H256.898C256.93 51.1477 257.069 51.3097 257.156 51.7722C257.185 51.9265 257.184 52.1338 257.183 52.3535C257.18 53.0448 257.176 54.0896 258.223 54.7714C258.25 54.7888 258.279 54.7962 258.307 54.8102C257.659 56.2039 256.707 57.4041 255.699 58.6665C255.283 59.187 254.853 59.7253 254.448 60.2774C254.168 60.6579 254.251 61.193 254.631 61.4723C254.784 61.5841 254.961 61.638 255.136 61.638C255.399 61.638 255.658 61.5171 255.826 61.2891C256.211 60.765 256.63 60.2407 257.035 59.7334C257.499 59.1523 257.968 58.5613 258.412 57.9441C258.487 58.2131 258.546 58.4961 258.605 58.7869C258.741 59.4521 258.881 60.1397 259.233 60.8108C260.009 62.2875 261.453 65.036 264.376 65.459C264.51 65.4785 264.64 65.5041 264.766 65.5343C263.541 67.6759 261.871 69.561 260.247 71.3848C259.695 72.0049 259.123 72.6462 258.575 73.2918C254.169 78.4739 251.074 83.16 248.834 88.0389C248.443 88.8903 248.256 89.6991 248.091 90.4129C247.877 91.3433 247.695 92.1275 247.121 92.8491C246.975 92.5057 246.834 92.1174 246.696 91.7352C246.349 90.7786 245.994 89.7986 245.456 89.0623C245.479 89.0421 245.504 89.0214 245.527 89.001ZM213.53 139.414C214.075 139.41 214.547 139.41 214.91 139.617C215.243 139.807 215.585 139.93 215.916 140.048C216.474 140.248 216.826 140.385 217 140.67C218.78 143.58 221.384 144.109 223.975 144.109C224.737 144.109 225.498 144.063 226.236 144.018L226.395 144.009C230.122 143.786 233.367 143.234 236.315 142.32C237.361 141.996 238.376 141.577 239.358 141.172C239.616 141.065 239.876 140.961 240.135 140.856C240.036 141.638 239.792 142.319 239.393 142.886C238.508 144.145 236.855 144.917 234.481 145.182C231.346 145.53 228.307 145.195 225.091 144.84C224.353 144.759 223.616 144.677 222.878 144.604C219.737 144.295 216.542 144.009 213.453 143.733C211.794 143.584 210.136 143.436 208.478 143.283L208.38 143.274C208.078 143.247 207.794 143.222 207.587 143.143C206.917 142.887 206.644 142.605 206.615 142.441C206.585 142.276 206.744 141.91 207.293 141.425C208.414 140.433 209.574 139.45 210.715 138.489C210.741 138.523 210.768 138.557 210.8 138.588C211.669 139.422 212.701 139.414 213.53 139.414ZM219.768 146.161C219.874 146.405 219.919 146.571 219.937 146.675C219.857 146.674 219.739 146.669 219.573 146.642C219.082 146.559 218.599 146.533 218.132 146.508C217.374 146.467 216.659 146.429 216.034 146.156C215.473 145.911 215.422 145.778 215.42 145.772C215.417 145.762 215.42 145.712 215.448 145.628C216.864 145.756 218.293 145.886 219.722 146.02C219.734 146.068 219.747 146.115 219.768 146.161ZM214.981 132.716C216.108 131.464 217.308 130.348 218.649 129.303C219.171 128.896 219.566 128.73 219.907 128.73C220.084 128.73 220.246 128.775 220.403 128.855C220.402 128.86 220.4 128.865 220.399 128.87L220.294 129.003C218.585 131.18 216.97 133.236 214.341 133.93C213.955 134.032 213.556 134.155 213.164 134.346C214.198 133.453 214.771 132.949 214.981 132.716ZM202.545 138.139C202.719 137.669 203.14 136.837 204.005 136.539C205.578 135.998 207.042 135.883 208.436 136.195C203.669 140.419 203.293 141.193 203.548 141.974C203.695 142.423 204.177 142.669 204.626 142.521C204.73 142.487 204.822 142.435 204.902 142.371C204.9 142.507 204.912 142.633 204.932 142.747C205.04 143.341 205.482 144.169 206.977 144.74C207.405 144.903 207.841 144.943 208.227 144.977L208.322 144.986C209.981 145.138 211.64 145.287 213.3 145.436C213.443 145.448 213.589 145.462 213.733 145.474C213.688 145.781 213.712 146.075 213.812 146.351C214.076 147.087 214.773 147.471 215.35 147.722C216.259 148.119 217.164 148.168 218.039 148.215C218.479 148.239 218.895 148.262 219.292 148.328C219.514 148.365 219.721 148.383 219.915 148.383C220.551 148.383 221.03 148.183 221.342 147.783C221.657 147.379 221.736 146.847 221.58 146.197C221.957 146.233 222.335 146.269 222.71 146.306C223.442 146.378 224.172 146.459 224.903 146.539C227.127 146.785 229.404 147.036 231.714 147.036C232.694 147.036 233.68 146.991 234.67 146.881C237.552 146.56 239.612 145.547 240.792 143.87C241.938 142.241 242.197 140.065 241.563 137.401C240.603 133.37 240.314 129.252 240.702 125.16C241.637 115.296 243.663 106.686 246.895 98.8373C246.956 98.6897 247.019 98.5404 247.084 98.3892C247.545 97.3126 248.103 96.0023 247.861 94.5507C249.163 93.3538 249.467 92.0566 249.757 90.7977C249.911 90.1325 250.069 89.445 250.387 88.7522C252.56 84.0195 255.576 79.4587 259.877 74.3991C260.413 73.7685 260.978 73.1348 261.523 72.5221C263.211 70.6271 264.947 68.6675 266.258 66.3682C266.405 66.5356 266.522 66.7205 266.602 66.9229C267.695 69.6796 267.676 72.1366 266.545 74.4343C265.3 76.9632 263.262 78.7376 261.104 80.6162C260.53 81.1152 259.938 81.631 259.369 82.1564C254.767 86.4067 251.572 90.4147 249.314 94.7704C248.558 96.2309 248.176 97.3133 248.311 98.3664C248.283 98.4012 248.254 98.4365 248.231 98.4767C247.028 100.523 246.717 102.758 246.417 104.919C246.331 105.544 246.241 106.19 246.131 106.808C245.444 110.683 244.695 115.278 244.356 119.966C244.024 124.548 243.565 129.205 243.121 133.708L243.059 134.335C242.815 136.804 242.503 139.37 242.13 141.959C241.518 146.203 238.929 148.946 233.733 150.855C233.219 151.043 232.668 151.171 232.085 151.306C230.803 151.604 229.35 151.941 228.187 153.051C228.046 153.186 227.964 153.358 227.936 153.536C227.884 153.519 227.831 153.502 227.778 153.485C226.035 152.917 224.232 152.33 222.573 151.498C219.998 150.206 217.036 149.25 213.251 148.488C212.161 148.268 211.106 147.867 209.988 147.443C209.312 147.186 208.614 146.92 207.904 146.698C207.296 146.507 206.712 146.134 206.094 145.739C205.518 145.371 204.903 144.978 204.219 144.713C204.184 143.736 203.668 143.022 203.242 142.434C203.087 142.22 202.94 142.018 202.821 141.814C202.211 140.774 202.103 139.332 202.545 138.139ZM218.982 157.864C218.913 155.453 218.277 152.751 215.385 151.049C215.283 150.988 215.201 150.842 215.125 150.659C217.726 151.299 219.89 152.065 221.807 153.026C222.456 153.352 223.118 153.639 223.784 153.902C223.761 153.926 223.737 153.951 223.714 153.975C223.425 154.284 223.127 154.603 222.883 154.685C220.984 155.32 219.801 156.59 218.982 157.864ZM197.199 142.771C194.731 142.265 192.269 141.358 189.888 140.48C188.57 139.995 187.207 139.492 185.842 139.057C185.504 138.949 185.431 138.867 185.31 138.73C185.142 138.54 184.971 138.393 184.758 138.283L185.637 136.35C187.444 137.186 189.659 137.974 191.985 138.801C195.501 140.052 199.131 141.345 201.465 142.865C201.594 143.066 201.726 143.256 201.858 143.438C202.136 143.821 202.338 144.113 202.439 144.403C202.266 144.41 202.089 144.426 201.906 144.458C200.991 144.612 200.292 144.218 199.407 143.716C198.772 143.354 198.051 142.945 197.199 142.771ZM215.057 159.51C214.44 159.08 213.802 158.696 213.184 158.325C212.126 157.688 211.127 157.087 210.223 156.274C209.201 155.356 208.231 154.314 207.292 153.306C205.244 151.108 203.126 148.834 200.182 147.443C199.898 147.309 199.711 147.141 199.693 147.005C199.676 146.875 199.79 146.607 200.169 146.283C200.252 146.212 200.316 146.127 200.365 146.036C200.911 146.194 201.513 146.259 202.194 146.142C203.264 145.96 204.149 146.525 205.173 147.179C205.859 147.617 206.567 148.07 207.392 148.329C208.054 148.536 208.728 148.793 209.381 149.041C210.514 149.471 211.686 149.916 212.914 150.164C212.999 150.181 213.078 150.2 213.163 150.217C213.173 150.299 213.19 150.381 213.225 150.461C213.281 150.59 213.328 150.726 213.376 150.862C213.572 151.417 213.815 152.108 214.518 152.522C216.566 153.727 217.363 155.569 217.273 158.88C217.268 159.057 217.275 159.229 217.286 159.397C216.584 159.441 215.886 159.522 215.19 159.624C215.151 159.583 215.106 159.544 215.057 159.51ZM211.502 218.666C207.151 215.999 203.479 212.257 200.462 208.948C194.885 202.833 188.767 197.098 182.978 191.747C181.516 190.396 180.006 189.172 178.407 187.875C177.915 187.478 177.421 187.077 176.926 186.67C183.2 179.721 189.453 173.981 196.019 169.138C200.295 165.986 204.036 163.7 208.4 162.788C209.201 162.62 210.01 162.434 210.793 162.254C213.349 161.665 215.764 161.109 218.236 161.07C218.243 161.07 218.25 161.068 218.257 161.068C218.29 161.156 218.335 161.242 218.399 161.319C218.527 161.472 218.669 161.61 218.795 161.732C218.914 161.848 219.094 162.022 219.121 162.072C219.717 164.973 221.641 166.781 224.4 167.032C225.101 167.096 225.799 167.125 226.493 167.125C229.781 167.125 232.992 166.477 236.116 165.846L236.796 165.709C237.201 165.627 237.433 165.333 237.558 165.175C237.576 165.153 237.592 165.13 237.607 165.114C237.835 164.886 237.903 164.562 237.82 164.273C238.306 164.272 238.793 164.264 239.279 164.245C240.588 164.194 241.929 164.209 243.228 164.222C246.013 164.251 248.895 164.281 251.762 163.691C257.19 162.575 260.983 160.049 263.357 155.971C266.208 151.077 268.152 145.739 270.033 140.577C270.314 139.804 270.596 139.032 270.88 138.261L271.097 137.672C273.651 130.741 276.293 123.573 280.522 117.331C280.786 116.94 280.684 116.408 280.293 116.144C279.902 115.879 279.371 115.982 279.106 116.372C274.761 122.787 272.083 130.053 269.493 137.08L269.276 137.669C268.991 138.442 268.709 139.217 268.427 139.991C266.572 145.083 264.654 150.348 261.88 155.111C259.735 158.795 256.41 160.99 251.418 162.016C248.73 162.57 245.941 162.54 243.245 162.513C241.927 162.499 240.563 162.485 239.213 162.537C235.435 162.682 231.609 162.214 227.909 161.76C226.385 161.573 224.809 161.379 223.25 161.23C223.021 161.208 222.751 161.103 222.464 160.992C221.876 160.763 221.104 160.465 220.232 160.752C220.148 160.663 220.064 160.582 219.985 160.505C219.88 160.403 219.782 160.308 219.712 160.225C219.678 160.183 219.639 160.147 219.599 160.113C219.685 160.042 219.763 159.958 219.817 159.852C220.826 157.874 221.905 156.814 223.425 156.306C224.079 156.087 224.548 155.586 224.962 155.144C225.122 154.974 225.272 154.813 225.419 154.683C225.466 154.64 225.507 154.593 225.543 154.544C226.115 154.739 226.685 154.926 227.249 155.11C229.032 155.69 230.716 156.239 232.33 157.039C232.695 157.22 233.077 157.255 233.384 157.282C233.485 157.292 233.587 157.3 233.685 157.316C233.732 157.324 233.779 157.328 233.826 157.328C234.236 157.328 234.599 157.031 234.668 156.613C234.745 156.148 234.43 155.707 233.965 155.63C233.826 155.607 233.682 155.593 233.539 155.58C233.374 155.565 233.168 155.546 233.089 155.507C231.954 154.944 230.777 154.496 229.602 154.091C230.397 153.458 231.406 153.219 232.472 152.972C233.08 152.83 233.709 152.685 234.322 152.459C237.958 151.124 242.899 148.607 243.822 142.203C244.199 139.588 244.514 136.997 244.76 134.502L244.822 133.876C245.267 129.362 245.728 124.694 246.061 120.089C246.395 115.479 247.135 110.939 247.815 107.106C247.93 106.456 248.022 105.794 248.111 105.154C248.345 103.465 248.576 101.854 249.199 100.371C249.429 100.685 249.699 101.012 250.025 101.361C250.261 101.615 250.98 102.389 251.881 102.195C252.723 102.016 253.113 101.14 253.334 100.497C253.518 99.962 253.726 99.4167 253.927 98.8895C254.241 98.067 254.566 97.2163 254.823 96.3435C255.739 93.2276 258.54 90.2504 262.133 88.575C265.895 86.8197 269.931 86.7125 273.498 88.2719C277.919 90.2038 281.345 93.4867 284.28 98.6031C287.293 103.854 289.255 109.696 291.153 115.346C291.477 116.31 291.801 117.274 292.129 118.236C292.273 118.655 292.375 119.108 292.483 119.587C292.787 120.94 293.134 122.468 294.547 123.544C294.585 124.54 294.907 125.466 295.204 126.316C295.41 126.906 295.604 127.463 295.703 128.013C295.918 129.206 296.245 130.388 296.561 131.532C296.822 132.475 297.092 133.45 297.291 134.408C297.448 135.168 297.777 135.81 298.095 136.432C298.412 137.052 298.712 137.638 298.785 138.257C299.185 141.662 299.833 145.069 300.46 148.364C301.064 151.542 301.689 154.829 302.083 158.079C302.717 163.308 302.763 168.398 302.22 173.206C301.823 176.715 301.229 180.419 299.578 183.735C296.991 188.93 292.519 192.561 286.286 194.527C281.725 195.965 276.717 196.772 270.047 197.143C265.389 197.403 259.976 197.718 254.684 198.18C247.278 198.826 241.639 199.776 236.399 201.263C229.763 203.144 227.491 205.555 226.271 212.012C225.622 215.443 225.399 218.949 225.197 222.351C220.242 222.432 215.634 221.198 211.502 218.666ZM220.954 162.344C221.174 162.338 221.434 162.425 221.844 162.585C222.209 162.727 222.623 162.888 223.087 162.932C224.624 163.079 226.188 163.271 227.701 163.457C230.269 163.772 232.896 164.091 235.549 164.216C231.958 164.941 228.25 165.666 224.556 165.33C222.349 165.129 221.377 163.707 220.954 162.344ZM187.25 253.604C187.089 253.572 186.635 253.48 186.451 253.381C186.453 253.371 186.456 253.359 186.46 253.345C186.75 252.329 186.936 251.299 187.117 250.303C187.268 249.469 187.411 248.682 187.608 247.905C188.877 242.914 189.51 237.774 190.123 232.804L190.328 231.145C191.237 223.863 191.803 216.61 192.305 209.806C192.329 209.473 192.313 209.138 192.296 208.814C192.269 208.271 192.258 207.835 192.364 207.463C192.635 207.901 192.857 208.343 193.075 208.79C193.556 209.782 194.024 210.779 194.493 211.776C195.762 214.478 197.074 217.274 198.646 219.92C201.494 224.713 203.992 229.064 205.719 233.772C208.684 241.852 210.058 250.169 209.804 258.492C209.796 258.781 209.781 259.069 209.762 259.354C208.748 259.064 207.734 258.771 206.721 258.479C203.856 257.651 200.893 256.794 197.953 256.03C194.886 255.233 191.485 254.462 187.25 253.604ZM196.174 278.738C202.334 274.909 204.511 268.661 202.147 261.597C202.108 261.48 202.067 261.362 202.025 261.243C201.667 260.215 201.475 259.526 201.807 258.85C203.301 259.27 204.786 259.699 206.246 260.121C207.356 260.442 208.466 260.762 209.577 261.079C209.232 263.417 208.513 265.612 207.429 267.628C204.196 273.639 199.079 278.096 191.784 281.256L191.666 281.307C190.368 281.87 189.121 282.407 187.779 282.45C191.14 281.387 193.81 280.207 196.174 278.738ZM224.502 255.438C224.484 255.796 224.464 256.165 224.495 256.539C224.932 261.743 225.764 266.38 227.039 270.715C227.357 271.793 227.742 272.86 228.114 273.892C228.684 275.472 229.223 276.965 229.551 278.52C230.026 280.778 230.292 282.787 228.73 284.505C227.866 285.455 226.77 286.092 225.38 286.451C222.775 287.123 220.038 287.471 217.391 287.807C216.975 287.86 216.559 287.913 216.144 287.967C215.76 288.017 215.377 288.068 214.993 288.119C212.862 288.404 210.658 288.697 208.484 288.731C208.89 288.641 209.314 288.58 209.75 288.52C210.367 288.434 211.004 288.346 211.639 288.163C215.175 287.147 218.83 286.096 221.875 283.487C224.95 280.852 226.632 277.479 227.018 273.172C227.121 272.014 226.742 271.116 225.976 270.707C225.028 270.199 224.087 270.898 223.582 271.274C218.113 275.341 212.164 278.461 205.9 280.549C205.021 280.842 204.252 281.054 203.548 281.197C202.952 281.319 202.773 281.284 202.728 281.257C202.728 281.257 202.718 281.246 202.709 281.221C202.708 281.078 203.021 280.684 203.171 280.495L203.283 280.355C203.821 279.666 204.368 278.983 204.915 278.301C205.797 277.199 206.709 276.061 207.575 274.909C208.279 273.974 208.932 272.993 209.563 272.044C209.845 271.619 210.128 271.195 210.415 270.774C210.681 270.384 210.58 269.852 210.19 269.586C209.8 269.32 209.268 269.421 209.002 269.811C208.712 270.237 208.426 270.667 208.14 271.097C207.522 272.025 206.883 272.986 206.209 273.881C205.359 275.012 204.455 276.141 203.581 277.232C203.03 277.92 202.479 278.607 201.936 279.301L201.834 279.431C201.403 279.972 200.752 280.79 201.091 281.771C201.632 283.333 203.332 282.986 203.89 282.872C204.661 282.715 205.495 282.486 206.44 282.171C212.877 280.026 218.988 276.821 224.602 272.646C224.717 272.561 225.038 272.322 225.214 272.256C225.286 272.358 225.351 272.619 225.315 273.02C224.971 276.86 223.482 279.859 220.763 282.189C218.001 284.556 214.681 285.51 211.167 286.52C210.649 286.669 210.098 286.745 209.515 286.826C208.359 286.986 207.165 287.152 206.054 287.899C205.841 288.041 205.717 288.263 205.686 288.498C204.211 288.362 202.762 288.517 201.347 288.669C200.297 288.781 199.297 288.884 198.309 288.882C194.845 288.863 191.166 288.788 187.62 288.128C185.919 287.812 184.87 287.332 184.539 285.814C184.364 285.011 184.603 284.354 184.918 284.059C185.131 283.859 185.39 283.807 185.71 283.898C188.288 284.636 190.444 283.7 192.346 282.876L192.464 282.825C200.125 279.507 205.513 274.801 208.934 268.438C210.078 266.31 210.841 264.002 211.227 261.553C211.666 261.636 212.117 261.72 212.57 261.789C213.247 261.893 213.938 262.023 214.607 262.148C216.258 262.457 217.959 262.775 219.723 262.775C219.95 262.775 220.179 262.77 220.408 262.759C221.628 262.699 222.755 262.486 223.127 260.56C223.37 259.308 223.688 258.036 223.996 256.807C224.173 256.101 224.351 255.388 224.518 254.668C224.526 254.896 224.518 255.149 224.502 255.438ZM318.732 128.803C318.362 129.678 317.979 130.582 317.568 131.442C313.976 138.97 311.634 147.046 309.721 154.024C308.09 159.972 306.889 166.124 305.727 172.073C305.513 173.168 305.299 174.263 305.082 175.358L304.817 176.703C303.644 182.682 302.43 188.864 299.599 194.388C297.748 198.002 294.683 200.07 289.955 200.897C286.35 201.528 282.624 201.653 279.021 201.773C276.06 201.873 272.998 201.975 269.987 202.355C263.499 203.174 257.996 205.177 253.165 208.48C251.686 209.491 250.207 210.547 248.776 211.568C246.558 213.151 244.264 214.788 241.943 216.277C236.481 219.781 231.68 221.694 226.915 222.257C227.111 218.97 227.334 215.591 227.951 212.33C228.984 206.864 230.417 204.736 236.865 202.908C241.997 201.452 247.539 200.519 254.833 199.883C260.099 199.424 265.497 199.109 270.142 198.85C276.96 198.471 282.097 197.641 286.8 196.157C293.493 194.047 298.307 190.123 301.108 184.497C302.877 180.943 303.504 177.063 303.918 173.398C304.477 168.458 304.43 163.235 303.78 157.873C303.379 154.567 302.749 151.251 302.139 148.045C301.518 144.779 300.876 141.402 300.482 138.058C300.439 137.69 300.351 137.35 300.238 137.027C300.325 136.978 300.406 136.917 300.474 136.836C301.438 135.681 301.492 134.337 301.539 133.151C301.547 132.966 301.554 132.782 301.565 132.601C301.756 129.475 302.975 127.044 305.402 124.949C308.83 121.991 312.835 120.863 317.645 121.498C317.844 121.525 318.047 121.549 318.251 121.573C319.619 121.737 320.917 121.894 321.881 122.74C320.5 124.629 319.603 126.746 318.732 128.803Z" fill="#E9E990"/>
<path d="M165.394 282.686C165.147 282.487 164.909 282.271 164.657 282.043C164.168 281.599 163.663 281.141 163.041 280.767C157.183 277.25 153.706 271.761 152.412 263.984C152.159 262.462 151.896 260.941 151.634 259.42C150.995 255.72 150.335 251.894 149.826 248.121C148.796 240.482 147.996 232.31 147.383 223.137C147.165 219.879 146.968 216.564 146.778 213.357C146.437 207.615 146.084 201.678 145.598 195.845C145.567 195.466 145.564 195.062 145.561 194.634C145.551 193.113 145.536 191.392 144.212 189.971C144.248 189.585 144.274 189.204 144.284 188.832C146.724 188.092 146.928 185.787 146.86 184.098C146.814 182.958 146.524 181.961 146.114 181.042C146.121 181.031 146.131 181.023 146.137 181.011C147.393 178.845 146.597 176.896 145.894 175.177C145.8 174.947 145.706 174.717 145.618 174.488C143.565 169.157 139.458 165.862 133.063 164.414C129.337 163.57 126.435 163.309 123.655 163.564C123.638 163.539 123.62 163.514 123.602 163.489L123.453 163.28C122.816 162.387 121.831 162.119 120.861 161.961C119.426 161.729 117.966 161.527 116.554 161.332C113.55 160.918 110.445 160.49 107.473 159.741C104.066 158.883 100.262 157.523 97.8772 153.943C96.0471 151.195 95.385 147.846 94.908 144.923C94.0199 139.479 93.5235 133.872 93.0434 128.45C92.8916 126.737 92.74 125.024 92.5764 123.313L92.4323 121.789C91.9118 116.24 91.3735 110.501 89.6045 104.991C88.701 102.176 87.8966 99.177 88.8272 96.1746C89.3901 94.3586 91.6933 88.5674 97.6949 90.3137C100.84 91.2282 103.507 90.2225 105.012 87.5549C105.474 86.7372 105.94 85.9217 106.405 85.1061C107.623 82.9723 108.882 80.7661 110.049 78.5497C111.137 76.4816 111.488 74.5888 111.152 72.5931C110.847 70.782 110.558 68.7068 110.988 66.9963C111.503 64.9471 111.678 62.9911 111.51 61.0942C112.532 60.3634 112.719 59.3445 112.813 58.4458C113.273 54.0565 111.706 50.2213 108.023 46.7211C104.374 43.2544 99.9065 40.9699 94.3655 39.7369C88.8595 38.5119 84.4009 38.9055 80.3344 40.9755C77.1296 42.6069 74.5792 45.2022 72.3082 49.1426C69.6988 53.6704 68.2603 58.518 67.2988 62.2353C66.1437 66.6999 65.1045 71.2604 64.0995 75.6707C63.684 77.495 63.2683 79.3192 62.8437 81.1418C61.946 84.9944 60.4071 88.9905 58.0002 93.7175C56.8768 95.9239 55.339 97.729 53.7111 99.6402C52.5851 100.962 51.4209 102.329 50.422 103.827C46.6816 109.438 43.7749 114.678 41.536 119.846C39.8783 123.673 38.4939 127.317 37.3036 130.988C37.2815 131.056 37.2535 131.118 37.227 131.182C37.1828 131.031 37.1387 130.88 37.0943 130.726C36.6662 129.245 36.2235 127.713 35.3209 126.268C33.2259 122.914 28.0284 120.15 22.957 121.325C18.9505 122.255 17.3778 124.816 18.1488 129.155C18.7003 132.258 19.8097 135.186 20.8825 138.017C21.21 138.881 21.5488 139.775 21.8635 140.654C23.922 146.402 25.8459 152.327 27.7451 158.768C29.3911 164.349 30.6198 170.144 31.8079 175.747C32.4577 178.812 33.1296 181.98 33.8631 185.085L34.0567 185.905C35.5852 192.381 37.1657 199.078 39.7747 205.375L39.7911 205.414C40.9662 208.25 42.1814 211.182 45.0815 213.092C46.672 214.139 48.389 214.732 50.185 214.855C55.9963 215.251 61.8726 214.905 67.5551 214.57L68.2387 214.53C68.8708 214.493 69.5149 214.434 70.1378 214.377C71.7965 214.225 73.5047 214.073 75.0412 214.337C70.0584 214.45 64.6084 214.816 58.0121 215.478C54.3065 215.85 49.9442 216.402 45.687 217.67C41.8441 218.815 39.4566 221.497 38.5908 225.643C37.5417 230.667 36.5233 235.784 35.5387 240.732C34.3405 246.752 33.1016 252.978 31.7983 259.079C30.4479 265.402 28.8916 271.798 27.3863 277.983C26.9959 279.588 26.6053 281.193 26.2179 282.798C25.3973 286.197 24.514 289.645 23.6597 292.979C23.2689 294.504 22.878 296.029 22.4915 297.556C22.3755 298.013 22.6526 298.479 23.1102 298.594C23.1807 298.612 23.2513 298.621 23.3208 298.621C23.7027 298.621 24.0506 298.363 24.1487 297.975C24.5349 296.45 24.9253 294.927 25.3159 293.403C26.1715 290.063 27.0563 286.61 27.8797 283.199C28.267 281.595 28.6572 279.991 29.0475 278.387C30.5554 272.191 32.1147 265.783 33.4702 259.437C34.7759 253.323 36.016 247.091 37.2153 241.065C38.1993 236.121 39.2167 231.009 40.2644 225.992C41.0021 222.459 42.9356 220.273 46.1752 219.308C50.2952 218.081 54.5572 217.543 58.1831 217.179C65.2507 216.469 70.9883 216.102 76.2398 216.024C77.03 216.012 77.6612 215.733 78.1694 215.171C78.2609 215.07 78.3202 214.952 78.3548 214.829C79.8557 214.939 81.3491 214.914 82.8119 214.889C85.3252 214.843 87.6985 214.802 89.9799 215.412C91.0931 215.71 92.2304 215.909 93.3301 216.101C95.1574 216.421 96.8831 216.723 98.5 217.439C100.861 218.483 102.242 220.482 102.847 223.729C104.209 231.042 104.771 238.486 105.315 245.684C105.765 251.641 106.376 257.949 107.181 264.967C108.252 274.296 109.367 282.036 110.689 289.326C110.781 289.836 110.904 290.339 111.022 290.825C111.285 291.906 111.533 292.927 111.455 293.964C111.42 294.434 111.773 294.845 112.243 294.88C112.265 294.882 112.287 294.882 112.309 294.882C112.751 294.882 113.126 294.541 113.16 294.092C113.259 292.785 112.966 291.583 112.683 290.42C112.565 289.937 112.454 289.481 112.371 289.021C111.056 281.768 109.946 274.063 108.88 264.772C108.076 257.776 107.468 251.49 107.02 245.555C106.472 238.311 105.906 230.82 104.527 223.416C103.82 219.617 102.075 217.151 99.1918 215.875C98.3523 215.504 97.4903 215.233 96.623 215.016C99.9234 215.379 103.36 216.071 106.844 217.075C110.529 218.138 112.932 216.676 115.614 213.973C115.708 213.878 115.795 213.782 115.881 213.685C115.981 214.352 115.862 215.055 115.726 215.836C115.652 216.256 115.576 216.692 115.536 217.135C115.248 220.371 115.547 223.582 115.836 226.687C115.925 227.648 116.018 228.641 116.091 229.616C116.176 230.756 116.274 231.895 116.371 233.035C116.773 237.747 117.189 242.619 116.707 247.407C116.31 251.356 115.18 255.011 113.44 257.975L113.198 258.383C111.993 260.418 110.852 262.345 112.126 264.941C111.465 267.127 112.887 268.463 113.941 269.453C114.229 269.724 114.501 269.98 114.712 270.229C117.968 274.069 121.379 277.737 124.851 281.131C125.164 281.436 125.469 281.747 125.772 282.055C127.196 283.5 128.667 284.994 130.702 285.809C132.471 286.517 134.147 286.868 135.776 286.868C136.491 286.868 137.198 286.8 137.898 286.665C138.755 286.5 139.195 286.021 139.468 285.543C139.648 285.529 139.822 285.461 139.963 285.338C140.671 284.721 141.656 283.37 140.295 281.248C139.852 280.556 139.337 279.923 138.839 279.31C138.431 278.809 138.046 278.335 137.699 277.834L137.379 277.374C136.162 275.629 135.005 273.965 134.613 271.999C136.861 273.156 138.664 274.837 140.328 276.487C141.013 277.166 141.694 277.888 142.353 278.586C144.46 280.819 146.638 283.129 149.49 284.666C153.666 286.917 158.188 287.211 161.661 287.215C161.662 287.215 161.663 287.215 161.664 287.215C162.28 287.215 162.876 286.987 163.402 286.558C163.621 286.636 163.854 286.678 164.092 286.678C164.247 286.678 164.404 286.661 164.56 286.627C165.228 286.479 165.809 286.026 166.116 285.416C166.569 284.515 166.272 283.393 165.394 282.686ZM140.504 195.876C140.443 195.696 140.381 195.518 140.32 195.345C140.141 194.843 139.971 194.368 139.886 193.902C139.845 193.68 139.788 193.475 139.733 193.277C139.634 192.917 139.548 192.607 139.601 192.332C139.929 190.619 139.916 188.904 139.903 187.246C139.899 186.772 139.895 186.297 139.899 185.824C139.914 184.134 139.098 182.84 137.77 182.446C137.135 182.257 136.705 181.835 136.208 181.346C135.974 181.116 135.733 180.879 135.456 180.652C135.289 180.515 135.079 180.446 134.862 180.46C132.96 180.574 132.903 182.296 132.881 182.944C132.877 183.07 132.873 183.199 132.863 183.264C132.789 183.715 132.721 184.159 132.656 184.597C132.627 182.504 132.35 180.403 131.816 178.319L131.786 178.204C131.563 177.327 131.267 176.173 130.176 175.545C134.394 175.825 137.352 178.303 140.417 181.909C142.16 183.959 142.84 186.589 142.499 189.945C142.491 189.955 142.481 189.962 142.473 189.972C141.747 190.931 141.582 192.027 141.436 192.993C141.328 193.708 141.226 194.383 140.92 194.943C140.799 195.164 140.707 195.39 140.626 195.591C140.58 195.703 140.541 195.794 140.504 195.876ZM137.962 193.252C137.837 193.304 137.722 193.388 137.63 193.501C137.17 194.067 136.913 194.692 136.664 195.297C136.388 195.966 136.15 196.544 135.684 196.941C135.202 197.353 134.999 197.323 134.998 197.322C134.964 197.313 134.804 197.187 134.639 196.73L134.457 196.232C134.274 195.734 134.09 195.228 133.939 194.728C133.942 194.725 133.945 194.724 133.948 194.722C135.29 193.709 135.696 192.277 136.055 191.014C136.188 190.546 136.314 190.103 136.48 189.69C136.791 188.914 136.878 188.123 136.961 187.358C137.075 186.314 137.173 185.412 137.808 184.705C137.842 184.667 137.871 184.626 137.897 184.584C138.108 184.93 138.193 185.39 138.19 185.809C138.185 186.292 138.189 186.776 138.193 187.259C138.206 188.907 138.218 190.463 137.922 192.01C137.834 192.466 137.882 192.883 137.962 193.252ZM133.616 192.592C133.699 189.87 134.004 186.907 134.55 183.537C134.578 183.364 134.584 183.188 134.59 183.001C134.605 182.562 134.631 182.358 134.696 182.261C134.799 182.359 134.903 182.461 135.009 182.565C135.406 182.955 135.843 183.379 136.415 183.707C135.523 184.792 135.384 186.054 135.261 187.173C135.187 187.853 135.117 188.495 134.893 189.053C134.694 189.549 134.55 190.057 134.41 190.547C134.192 191.317 133.989 192.014 133.616 192.592ZM129.3 177.013C129.737 177.255 129.902 177.732 130.13 178.625L130.16 178.744C130.898 181.624 131.124 184.538 130.831 187.404C130.818 187.528 130.807 187.656 130.795 187.785C130.683 189.009 130.555 189.863 129.925 190.389C129.78 189.715 129.629 189.043 129.478 188.37C128.981 186.149 128.466 183.853 128.169 181.586C127.881 179.389 127.98 177.975 129.3 177.013ZM132.686 166.082C138.482 167.394 142.19 170.345 144.023 175.103C144.115 175.343 144.213 175.583 144.312 175.823C144.787 176.987 145.214 178.033 145.045 179.09C144.876 178.82 144.703 178.553 144.532 178.288C143.943 177.378 143.387 176.519 142.999 175.586C142.25 173.788 141.056 171.578 138.454 170.444C137.861 170.185 137.268 169.959 136.547 170.012C136.076 170.048 135.723 170.458 135.759 170.929C135.794 171.4 136.203 171.752 136.676 171.717C137.01 171.689 137.34 171.823 137.77 172.011C139.365 172.706 140.491 174.011 141.421 176.243C141.868 177.318 142.493 178.283 143.096 179.216C144.114 180.79 145.076 182.277 145.152 184.167C145.223 185.941 144.879 186.67 144.229 187.025C144.006 184.593 143.169 182.507 141.72 180.802C138.585 177.114 134.885 173.726 129.117 173.807C128.913 173.81 128.701 173.818 128.484 173.827C127.605 173.86 126.705 173.89 125.924 173.622C126.119 173.424 126.3 173.215 126.453 172.985C127.182 171.889 127.348 170.579 126.921 169.297C126.423 167.807 125.645 166.47 124.794 165.2C127.104 165.1 129.586 165.38 132.686 166.082ZM64.5088 81.5302C64.9339 79.7048 65.3502 77.8778 65.7665 76.0509C66.7687 71.6525 67.8051 67.1044 68.9541 62.6637C69.8887 59.051 71.2829 54.3464 73.7896 49.9968C75.8877 46.3561 78.214 43.9738 81.1104 42.4994C84.8033 40.6194 88.8976 40.2718 93.9945 41.4061C99.2243 42.5697 103.428 44.7138 106.845 47.9608C110.118 51.0706 111.514 54.4419 111.113 58.2679C111.101 58.376 111.089 58.4752 111.076 58.5675C110.918 57.9532 110.722 57.3438 110.488 56.738C110.318 56.2976 109.823 56.0779 109.383 56.2481C109.106 56.3552 108.917 56.5912 108.857 56.8612C108.165 57.58 107.572 58.3667 106.999 59.1284C106.08 60.3505 105.212 61.5046 103.989 62.3554C100.129 65.0423 96.3971 65.9655 92.2466 65.2581C91.6717 65.1605 91.0967 65.0498 90.5209 64.9393C89.4947 64.742 88.4335 64.538 87.3644 64.4054C85.4607 64.1684 83.9069 64.6092 82.8689 65.6777C81.8229 66.7542 81.426 68.3391 81.721 70.2608C82.0151 72.1774 82.7744 73.9577 84.1102 75.8636C85.3009 77.5621 86.4766 79.593 86.169 81.7758C85.6144 85.7116 84.1955 86.9903 80.3298 87.037C79.8764 87.0427 79.4234 87.0437 78.9708 87.0447C76.7982 87.0498 74.5516 87.0551 72.2899 87.5663C67.7661 88.589 63.7418 90.6241 59.9867 93.7875L59.8141 93.9347C59.8087 93.9394 59.8042 93.943 59.7989 93.9477C62.1117 89.3303 63.6143 85.3698 64.5088 81.5302ZM85.6922 75.1465C85.6315 75.0579 85.5708 74.9692 85.5099 74.8822C84.3304 73.1995 83.6632 71.6486 83.4105 70.0013C83.1999 68.6296 83.4366 67.5464 84.0948 66.8688C84.2175 66.7425 84.3593 66.6353 84.5103 66.5379C86.078 68.1156 86.5698 70.1208 86.8156 72.6377C86.9483 73.9942 86.6386 74.7137 85.6922 75.1465ZM107.318 215.433C103.63 214.37 99.9891 213.647 96.4956 213.284C96.1642 213.25 95.8159 213.191 95.4471 213.128C94.8231 213.023 94.1314 212.905 93.4152 212.905C92.5177 212.905 91.5819 213.089 90.6932 213.71C90.6528 213.738 90.6156 213.769 90.5817 213.803C90.5283 213.789 90.475 213.775 90.4219 213.761C87.9088 213.089 85.3026 213.136 82.7819 213.179C80.4795 213.221 78.0981 213.263 75.8323 212.746C73.9291 212.313 71.9227 212.497 69.9818 212.675C69.3727 212.731 68.7428 212.788 68.1388 212.824L67.4548 212.864C61.8257 213.196 56.0046 213.537 50.3015 213.149C48.8032 213.047 47.3634 212.548 46.0221 211.665C43.5601 210.043 42.4966 207.477 41.3708 204.76L41.3544 204.721C38.7982 198.551 37.2338 191.923 35.7208 185.513L35.5272 184.692C34.7981 181.606 34.1283 178.448 33.4806 175.393C32.2855 169.757 31.0499 163.93 29.3852 158.285C27.4766 151.812 25.5428 145.857 23.4732 140.078C23.1533 139.185 22.8118 138.283 22.4815 137.411C21.4365 134.654 20.3559 131.802 19.8324 128.856C19.2201 125.411 20.2375 123.712 23.344 122.991C27.6699 121.986 32.0941 124.329 33.8713 127.174C34.6476 128.417 35.0385 129.769 35.4523 131.201C35.7179 132.121 35.9927 133.071 36.3789 133.996C36.4543 134.177 36.4158 134.38 36.3411 134.724C36.3203 134.821 36.2997 134.916 36.2827 135.01C36.1003 136.021 35.8549 137.051 35.6175 138.047C35.4747 138.645 35.3322 139.244 35.2006 139.845C33.2683 148.676 32.5643 157.998 33.1077 167.549C33.5431 175.206 34.7254 181.82 36.7221 187.769C37.9804 191.517 39.904 196.322 43.6413 200.236C47.4693 204.244 52.4013 205.482 56.2704 206.112C61.753 207.006 66.708 207.29 71.4183 206.98C72.8068 206.888 74.1964 206.807 75.5862 206.726C80.0657 206.465 84.6979 206.194 89.2468 205.57C91.7552 205.225 94.3264 204.966 96.8128 204.716C99.4181 204.454 102.112 204.182 104.756 203.811C107.555 203.418 110.387 203.258 113.412 203.319C114.6 203.343 115.803 203.959 116.28 204.541C116.439 204.734 116.467 204.862 116.459 204.906C116.314 205.723 116.264 206.543 116.216 207.336C116.091 209.396 115.983 211.175 114.401 212.769C112.046 215.143 110.22 216.269 107.318 215.433ZM118.409 247.579C118.906 242.632 118.483 237.68 118.075 232.89C117.978 231.756 117.881 230.622 117.796 229.489C117.722 228.498 117.628 227.497 117.538 226.529C117.256 223.5 116.965 220.368 117.239 217.287C117.273 216.916 117.339 216.534 117.41 216.13C117.62 214.928 117.858 213.565 117.192 212.173C117.151 212.088 117.096 212.017 117.035 211.953C117.74 210.447 117.836 208.878 117.923 207.439C117.97 206.661 118.015 205.926 118.143 205.206C118.215 204.797 118.181 204.162 117.602 203.456C116.737 202.402 115.028 201.643 113.447 201.61C110.329 201.545 107.409 201.713 104.518 202.118C101.908 202.485 99.2305 202.754 96.6416 203.015C94.1402 203.267 91.5535 203.527 89.0142 203.876C84.5316 204.491 79.9334 204.76 75.4866 205.02C74.0926 205.101 72.6989 205.182 71.3062 205.274C66.7265 205.574 61.8984 205.297 56.5452 204.425C51.1893 203.552 47.5908 201.896 44.8778 199.055C41.3735 195.385 39.5447 190.805 38.3429 187.224C36.3952 181.423 35.2411 174.955 34.8145 167.453C34.2798 158.056 34.9716 148.89 36.8707 140.21C36.9997 139.619 37.1402 139.031 37.2804 138.443C37.5231 137.425 37.7743 136.372 37.9651 135.314C37.9785 135.239 37.9951 135.163 38.0119 135.087C38.1092 134.637 38.2426 134.023 37.9562 133.337C37.9371 133.291 37.9209 133.244 37.9023 133.198C38.2678 132.818 38.6783 132.291 38.9298 131.515C40.1032 127.897 41.4688 124.302 43.1047 120.526C45.3026 115.453 48.1615 110.301 51.8445 104.776C52.7877 103.361 53.9187 102.033 55.0126 100.749C56.2234 99.3278 57.4646 97.8699 58.5218 96.2287C58.6146 96.2386 58.7054 96.2447 58.7928 96.2447C59.7447 96.2447 60.3916 95.6905 60.9259 95.2327L61.0878 95.0948C64.6285 92.1118 68.4159 90.1945 72.6664 89.2336C74.7439 88.7637 76.7988 88.759 78.9743 88.7541C79.4326 88.753 79.8912 88.7521 80.3502 88.7464C85.081 88.689 87.1869 86.8014 87.8616 82.014C88.1447 80.0039 87.5053 78.1958 86.6061 76.6011C88.0857 75.8371 88.7133 74.4793 88.5172 72.4712C88.3011 70.2591 87.8752 67.9757 86.3661 66.0572C86.6169 66.0556 86.8773 66.0673 87.1536 66.1018C88.1665 66.2275 89.1992 66.4261 90.1981 66.618C90.7861 66.7309 91.3729 66.8436 91.9599 66.9434C96.5177 67.7199 100.772 66.6775 104.966 63.7587C106.414 62.7512 107.406 61.432 108.365 60.156C108.706 59.7034 109.037 59.2681 109.38 58.8513C110.035 61.3012 110.019 63.8443 109.331 66.5797C108.82 68.6108 109.133 70.8952 109.466 72.8768C109.737 74.4844 109.441 76.0341 108.536 77.7538C107.384 79.9442 106.132 82.1377 104.921 84.2588C104.454 85.0768 103.987 85.8949 103.524 86.7151C102.042 89.3413 99.5354 89.0681 98.1727 88.6725C93.1886 87.222 88.9816 89.9038 87.1949 95.6686C86.117 99.1465 86.9903 102.439 87.9772 105.513C89.6893 110.847 90.2187 116.491 90.7307 121.948L90.875 123.476C91.0382 125.183 91.1895 126.892 91.3408 128.601C91.8238 134.054 92.3231 139.693 93.2214 145.198C93.727 148.298 94.4357 151.859 96.455 154.891C99.1614 158.955 103.332 160.461 107.056 161.399C110.118 162.171 113.271 162.606 116.32 163.026C117.723 163.22 119.172 163.42 120.588 163.649C121.286 163.762 121.804 163.912 122.061 164.273L122.211 164.482C123.413 166.167 124.656 167.909 125.299 169.838C125.629 170.826 125.335 171.58 125.03 172.038C124.514 172.813 123.579 173.323 122.529 173.401C115.42 173.932 108.248 173.401 101.555 172.749C96.4299 172.25 91.4731 171.551 87.1642 168.518C84.3431 166.532 82.508 163.678 80.9449 160.889C76.7341 153.376 74.1481 145.27 72.3655 139.047C72.255 138.661 72.1433 138.276 72.0315 137.89C71.2723 135.272 70.4875 132.566 70.1585 129.833C70.1021 129.364 69.6778 129.034 69.2077 129.086C68.739 129.143 68.4048 129.568 68.4613 130.037C68.8067 132.908 69.6114 135.683 70.3895 138.366C70.5009 138.75 70.612 139.134 70.7221 139.518C72.5302 145.83 75.1566 154.058 79.4537 161.725C81.1152 164.69 83.08 167.733 86.1801 169.915C90.8261 173.186 96.241 173.949 101.389 174.45C106.212 174.92 111.284 175.327 116.42 175.327C118.492 175.327 120.575 175.261 122.656 175.106C123.236 175.063 123.794 174.926 124.31 174.712C124.329 174.727 124.345 174.744 124.366 174.757C125.681 175.617 127.198 175.585 128.438 175.539C125.89 177.29 126.264 180.212 126.474 181.808C126.781 184.151 127.304 186.486 127.81 188.744C127.981 189.508 128.153 190.272 128.316 191.037C128.409 191.476 128.726 191.733 128.957 191.921C129.019 191.972 129.087 192.025 129.148 192.085C129.311 192.249 129.53 192.336 129.752 192.336C129.866 192.336 129.981 192.313 130.089 192.266C131.127 191.821 131.694 191.11 132.019 190.33C131.963 191.143 131.922 191.937 131.901 192.71C131.862 194.128 132.366 195.498 132.853 196.822L133.031 197.31C133.364 198.234 133.878 198.794 134.559 198.975C135.256 199.159 136.007 198.913 136.793 198.242C137.573 197.577 137.93 196.711 138.244 195.948C138.331 195.737 138.416 195.532 138.507 195.337C138.572 195.534 138.641 195.727 138.709 195.919C139.045 196.859 139.334 197.671 139.134 198.511C138.855 199.684 138.542 200.875 138.24 202.026C137.916 203.261 137.581 204.538 137.283 205.807C136.662 208.449 136.01 211.132 135.38 213.727C134.094 219.021 132.764 224.494 131.624 229.927C130.827 233.724 130.003 237.651 129.668 241.633C129.5 243.642 129.577 245.362 129.917 247.006C129.877 247.037 129.839 247.07 129.804 247.109C128.944 248.074 128.901 249.233 128.867 250.165C128.862 250.316 128.856 250.468 128.847 250.618C128.668 253.651 129.019 256.668 129.359 259.584L129.42 260.11C129.483 260.656 129.622 261.831 130.714 262.232C130.716 262.238 130.718 262.243 130.721 262.248C130.771 262.851 130.818 263.454 130.865 264.056C130.989 265.64 131.117 267.278 131.296 268.89C131.319 269.103 131.37 269.307 131.441 269.501C130.731 270.667 130.811 271.889 130.883 272.977C130.911 273.399 130.938 273.798 130.919 274.176C130.907 274.415 130.906 274.658 130.905 274.9C130.901 275.886 130.871 276.398 130.442 276.698C130.057 275.983 129.418 275.56 128.873 275.204C128.684 275.081 128.506 274.965 128.344 274.841C126.686 273.57 124.971 272.257 123.326 270.924C123.033 270.687 122.299 270.092 121.282 270.333C120.609 269.139 119.819 267.986 118.599 267.094C118.599 267.092 118.599 267.089 118.598 267.087C118.588 267.031 118.577 266.975 118.565 266.925C117.984 264.38 116.83 262.085 115.713 259.865C115.518 259.478 115.323 259.09 115.131 258.701C115.11 258.658 115.083 258.619 115.056 258.581C116.837 255.453 117.998 251.66 118.409 247.579ZM131.086 259.64L131.057 259.387C130.725 256.543 130.383 253.603 130.554 250.72C130.564 250.557 130.57 250.392 130.576 250.227C130.585 249.977 130.595 249.74 130.617 249.514C131.535 252.703 131.689 256.098 131.086 259.64ZM128.809 277.319C128.487 277.364 128.068 277.294 127.489 276.988C125.869 276.132 124.447 275.32 123.458 274.058C123.046 273.532 122.699 272.955 122.364 272.345C123.992 273.661 125.675 274.95 127.308 276.201C127.518 276.361 127.731 276.501 127.938 276.636C128.327 276.889 128.618 277.088 128.809 277.319ZM114.043 260.348C114.091 260.443 114.138 260.538 114.186 260.634C115.14 262.531 116.046 264.34 116.626 266.283C116.262 266.134 115.954 265.817 115.602 265.447C115.119 264.938 114.522 264.318 113.613 264.085C113.001 262.769 113.271 261.772 114.043 260.348ZM131.337 284.222C130.136 283.741 129.144 282.948 128.185 282.039C128.477 282.164 128.77 282.306 129.067 282.453C129.719 282.775 130.393 283.108 131.15 283.306C131.977 283.523 132.819 283.709 133.633 283.89C135.049 284.204 136.407 284.506 137.711 284.951C137.671 284.965 137.627 284.977 137.575 284.987C135.611 285.366 133.57 285.115 131.337 284.222ZM136.294 278.808C136.678 279.363 137.102 279.885 137.513 280.389C138.002 280.991 138.465 281.56 138.857 282.171C139.336 282.918 139.341 283.356 139.171 283.669C137.479 282.992 135.715 282.6 134.004 282.221C133.205 282.044 132.379 281.861 131.583 281.652C130.994 281.498 130.426 281.217 129.825 280.92C128.816 280.421 127.672 279.858 126.299 279.905C126.223 279.907 126.151 279.923 126.081 279.944C126.07 279.932 126.058 279.921 126.047 279.909C122.612 276.552 119.238 272.924 116.017 269.124C115.743 268.8 115.422 268.499 115.111 268.207C114.228 267.377 113.658 266.787 113.675 265.976C113.888 266.132 114.101 266.349 114.362 266.624C114.824 267.111 115.349 267.663 116.125 267.927C116.166 267.947 116.205 267.977 116.244 268.004C116.578 268.232 116.896 268.346 117.197 268.346C117.262 268.346 117.325 268.336 117.388 268.325C117.406 268.34 117.422 268.355 117.442 268.369C118.826 269.316 119.585 270.754 120.389 272.277C120.893 273.233 121.415 274.222 122.112 275.112C123.308 276.639 124.894 277.55 126.69 278.499C127.372 278.86 128.02 279.04 128.631 279.04C129.167 279.04 129.672 278.892 130.147 278.613C130.191 278.609 130.235 278.608 130.279 278.597C132.603 278.006 132.61 276.141 132.615 274.906C132.615 274.691 132.616 274.474 132.627 274.261C132.65 273.784 132.619 273.316 132.589 272.863C132.545 272.195 132.508 271.589 132.642 271.038C132.688 271.072 132.735 271.103 132.782 271.133C132.958 274.016 134.49 276.221 135.977 278.353L136.294 278.808ZM143.597 277.413C142.929 276.705 142.238 275.973 141.532 275.273C139.527 273.285 137.122 271.06 133.949 269.822C133.523 269.656 133.049 269.191 132.995 268.701C132.819 267.117 132.692 265.493 132.569 263.923C132.54 263.547 132.509 263.171 132.479 262.794C132.747 262.773 133.02 262.694 133.249 262.476C134.044 261.722 134.336 261.928 135.327 262.833C135.508 262.998 135.688 263.162 135.87 263.31C136.013 263.427 136.154 263.653 136.303 263.892C136.419 264.079 136.539 264.271 136.687 264.461C137.86 265.968 138.968 267.578 140.04 269.134C141.66 271.486 143.335 273.917 145.305 276.112C148.316 279.467 152.119 283.099 157.496 284.607C158.1 284.777 158.714 284.888 159.307 284.995C160.054 285.13 160.776 285.265 161.449 285.504C158.206 285.488 154.059 285.187 150.302 283.161C147.693 281.755 145.703 279.646 143.597 277.413ZM164.589 284.649C164.511 284.802 164.359 284.921 164.19 284.958C164.11 284.976 163.995 284.982 163.904 284.91C162.558 283.846 161.06 283.575 159.611 283.313C159.032 283.208 158.484 283.109 157.957 282.961C153.016 281.575 149.568 278.301 146.577 274.97C144.681 272.857 143.037 270.472 141.448 268.164C140.363 266.588 139.24 264.958 138.036 263.411C137.943 263.291 137.851 263.145 137.754 262.989C137.548 262.657 137.314 262.282 136.95 261.985C136.792 261.856 136.637 261.713 136.48 261.571C135.711 260.868 134.341 259.617 132.613 260.796C133.505 256.38 133.302 252.155 132.006 248.219C131.358 246.251 131.163 244.264 131.372 241.776C131.697 237.899 132.51 234.024 133.297 230.278C134.431 224.872 135.758 219.411 137.041 214.13C137.672 211.532 138.325 208.846 138.947 206.198C139.24 204.951 139.572 203.685 139.893 202.46C140.198 201.299 140.513 200.099 140.797 198.907C140.882 198.551 140.911 198.206 140.905 197.871C141.696 197.496 141.998 196.755 142.21 196.233C142.28 196.061 142.346 195.898 142.419 195.764C142.871 194.938 143.001 194.08 143.126 193.249C143.206 192.723 143.28 192.241 143.426 191.807C143.836 192.635 143.845 193.619 143.852 194.646C143.855 195.087 143.858 195.543 143.895 195.987C144.379 201.8 144.731 207.727 145.071 213.459C145.262 216.668 145.459 219.987 145.677 223.251C146.293 232.463 147.096 240.673 148.132 248.349C148.645 252.154 149.308 255.996 149.949 259.711C150.211 261.228 150.473 262.746 150.726 264.265C152.107 272.565 155.848 278.443 162.161 282.233C162.639 282.52 163.061 282.903 163.509 283.309C163.768 283.545 164.036 283.788 164.323 284.019C164.608 284.248 164.661 284.506 164.589 284.649Z" fill="#E9E990"/>
</svg>
